<svg xmlns="http://www.w3.org/2000/svg" width="17" height="21" viewBox="0 0 17 21">
    <g fill="#010101">
        <circle cx="5.1" cy="15.565" r="1"/>
        <circle cx="8.5" cy="15.565" r="1"/>
        <circle cx="11.9" cy="15.565" r="1"/>
        <circle cx="5.1" cy="12.106" r="1"/>
        <circle cx="8.5" cy="12.106" r="1"/>
        <circle cx="11.9" cy="12.106" r="1"/>
        <path d="M17 18.159V2.594C17 1.161 15.858 0 14.45 0H2.55C1.142 0 0 1.161 0 2.594V18.16c0 1.433 1.142 2.594 2.55 2.594h11.9c1.408 0 2.55-1.161 2.55-2.594zm-15.3 0V2.594c0-.477.38-.865.85-.865h11.9c.47 0 .85.388.85.865V18.16c0 .477-.38.865-.85.865H2.55c-.47 0-.85-.388-.85-.865z"/>
        <path d="M12.75 3.459h-8.5c-.47 0-.85.387-.85.865v4.323c0 .478.38.865.85.865h8.5c.47 0 .85-.387.85-.865V4.324c0-.478-.38-.865-.85-.865zm-.85 4.323H5.1V5.188h6.8v2.594z"/>
    </g>
</svg>
