<svg xmlns="http://www.w3.org/2000/svg" width="17" height="17" viewBox="0 0 17 17">
    <path fill="#010101" stroke="#010101" stroke-width=".5" d="M16.705 3.59c-.18-.082-.391-.051-.54.08l-2.677 2.403-2.417-2.478L13.464.833c.13-.149.161-.36.08-.54-.08-.18-.26-.295-.457-.293h-.144c-1.48 0-4.032.127-5.173 1.283l-.23.228c-1.216 1.24-1.432 3.274-.791 4.82l-6.13 6.25c-.826.843-.826 2.19 0 3.033l.749.758c.394.402.933.628 1.496.628s1.103-.226 1.497-.628l6.22-6.265c.64.333 1.349.512 2.07.525 1.093-.003 2.138-.447 2.898-1.231l.226-.23c1.239-1.255 1.22-3.936 1.225-5.115 0-.2-.114-.381-.295-.466h0zm-1.67 4.861l-.198.23c-.577.581-1.366.902-2.185.89-.449.001-.894-.076-1.315-.229-.337-.141-.647-.34-.916-.587l-6.808 6.858c-.197.201-.466.315-.748.315-.281 0-.55-.114-.748-.315l-.748-.757c-.412-.422-.412-1.095 0-1.517l6.652-6.781c-.216-.317-.374-.671-.465-1.045h0C7.3 4.478 7.45 3.048 8.253 2.23l.23-.231c.69-.7 2.48-.906 3.471-.967l-1.948 2.248c-.174.202-.165.503.02.694l3.08 3.158c.187.193.492.204.691.025l2.168-1.95c-.066 1.05-.27 2.576-.93 3.244v.001z"/>
</svg>
