<svg xmlns="http://www.w3.org/2000/svg" width="18" height="18" viewBox="0 0 18 18">
    <path fill="#010101" d="M14.657 0c.426 0 .772.345.772.771V2.07C16.87 2.199 18 3.41 18 4.886V15.17C18 16.734 16.734 18 15.171 18H2.83C1.266 18 0 16.734 0 15.171V4.886C0 3.41 1.13 2.199 2.571 2.069V.77c0-.426.346-.771.772-.771.426 0 .771.345.771.771v1.286h4.114V.771c0-.39.29-.713.667-.764L9 0c.426 0 .771.345.771.771v1.286h4.114V.771c0-.39.29-.713.667-.764zm1.8 8.228H1.542v6.943c0 .71.576 1.286 1.287 1.286H15.17c.71 0 1.286-.575 1.286-1.286V8.228zM8.987 3.6l-5.632-.001-.012.001h-.514c-.71 0-1.286.576-1.286 1.286l-.001 1.799h14.915v-1.8c0-.71-.575-1.285-1.286-1.285l-.501-.001-.013.001h-.013l-5.631-.001L9 3.6h-.013z"/>
</svg>
