<?xml version="1.0" encoding="UTF-8"?>
<svg width="18px" height="20px" viewBox="0 0 18 20" version="1.1" xmlns="http://www.w3.org/2000/svg" xmlns:xlink="http://www.w3.org/1999/xlink">
    <title>issued</title>
    <defs>
        <filter id="filter-1">
            <feColorMatrix in="SourceGraphic" type="matrix" values="0 0 0 0 1.000000 0 0 0 0 0.768627 0 0 0 0 0.360784 0 0 0 1.000000 0"></feColorMatrix>
        </filter>
        <path d="M2.637,3.132 C0.0635,5.7065 -0.7065,9.578 0.6865,12.941 L0.6865,12.941 C2.0795,16.305 5.3615,18.4975 9.002,18.4985384 L9.002,18.4985384 C11.3905,18.5055 13.6825,17.5555 15.3665,15.861 L15.3665,15.861 C15.672,15.504 15.652,14.9715 15.3195,14.639 L15.3195,14.639 C14.987,14.3065 14.4545,14.286 14.097,14.592 L14.097,14.592 C11.792,16.8945 8.2275,17.363 5.406,15.733 L5.406,15.733 C2.5845,14.1035 1.2085,10.7825 2.0505,7.635 L2.0505,7.635 C2.8925,4.487 5.7435,2.2975 9.002,2.2945 L9.002,2.2945 C9.499,2.2945 9.9025,1.8915 9.9025,1.394 L9.9025,1.394 C9.9025,0.897 9.499,0.494 9.002,0.494 L9.002,0.494 C8.994,0.494 8.986,0.494 8.978,0.494 L8.978,0.494 C6.5975,0.494 4.3155,1.4435 2.637,3.132 L2.637,3.132 Z" id="path-2"></path>
        <path d="M0.3025,1.0475 C0.2235,1.2775 0.241,1.5305 0.351,1.7475 L0.351,1.7475 C0.4615,1.964 0.6545,2.1275 0.8875,2.1995 L0.8875,2.1995 C0.9885,2.2355 1.0955,2.251 1.2025,2.2445 L1.2025,2.2445 C1.567,2.225 1.8835,1.9865 2.0035,1.6415 L2.0035,1.6415 C2.165,1.172 1.915,0.66 1.4455,0.4985 L1.4455,0.4985 C1.348,0.4645 1.2485,0.4485 1.1505,0.4485 L1.1505,0.4485 C0.78,0.4485 0.433,0.679 0.3025,1.0475 L0.3025,1.0475 Z M2.859,2.1005 C2.5525,2.489 2.617,3.052 3.003,3.361 L3.003,3.361 C3.161,3.488 3.358,3.558 3.561,3.55900608 L3.561,3.55900608 C3.8335,3.56 4.0915,3.4375 4.263,3.226 L4.263,3.226 C4.4135,3.039 4.4825,2.7995 4.4555,2.5615 L4.4555,2.5615 C4.4285,2.323 4.3075,2.105 4.119,1.9565 L4.119,1.9565 C3.954,1.8265 3.7575,1.763 3.562,1.763 L3.562,1.763 C3.2985,1.763 3.037,1.8785 2.859,2.1005 L2.859,2.1005 Z M4.9385,3.919 C4.735,4.0455 4.5905,4.2475 4.537,4.4805 L4.537,4.4805 C4.4825,4.714 4.523,4.9585 4.65,5.1615 L4.65,5.1615 L4.596,5.1615 C4.771,5.4425 5.0855,5.605 5.4155,5.5845 L5.4155,5.5845 C5.5845,5.585 5.7495,5.5385 5.8925,5.4495 L5.8925,5.4495 C6.096,5.3235 6.2405,5.121 6.2945,4.8885 L6.2945,4.8885 C6.349,4.6555 6.308,4.41 6.181,4.207 L6.181,4.207 C6.0545,4.004 5.8525,3.859 5.6195,3.805 L5.6195,3.805 C5.552,3.7895 5.484,3.782 5.416,3.782 L5.416,3.782 C5.2485,3.782 5.0825,3.8285 4.9385,3.919 L4.9385,3.919 Z M6.199,6.296 C5.967,6.355 5.7685,6.5045 5.6465,6.7105 L5.6465,6.7105 C5.525,6.9165 5.4905,7.1625 5.5505,7.394 L5.5505,7.394 L5.5235,7.394 C5.617,7.806 5.9835,8.098 6.406,8.0965 L6.406,8.0965 C6.4715,8.1045 6.5385,8.1045 6.604,8.0965 L6.604,8.0965 C6.847,8.0435 7.057,7.8925 7.185,7.6795 L7.185,7.6795 C7.313,7.467 7.347,7.21 7.279,6.971 L7.279,6.971 C7.2255,6.7385 7.0815,6.536 6.879,6.4095 L6.879,6.4095 C6.7345,6.3195 6.5695,6.2725 6.402,6.2725 L6.402,6.2725 C6.3345,6.2725 6.266,6.2805 6.199,6.296 L6.199,6.296 Z M5.7035,9.798 C5.644,10.2775 5.974,10.7185 6.451,10.797 L6.451,10.797 L6.4955,10.797 L6.604,10.797 C7.058,10.796 7.4405,10.4555 7.495,10.005 L7.495,10.005 C7.523,9.766 7.4535,9.5255 7.3035,9.338 L7.3035,9.338 C7.1525,9.15 6.9335,9.03 6.694,9.0055 L6.694,9.0055 C6.6615,9.002 6.629,9 6.597,9 L6.597,9 C6.1455,9 5.7565,9.339 5.7035,9.798 L5.7035,9.798 Z M4.9925,12.1205 C4.7795,12.5675 4.969,13.1025 5.4155,13.3175 L5.4155,13.3175 C5.5335,13.375 5.6625,13.4055 5.7935,13.408 L5.7935,13.408 C6.14,13.4065 6.455,13.207 6.604,12.8945 L6.604,12.8945 C6.8175,12.449 6.633,11.915 6.19,11.6975 L6.19,11.6975 C6.0655,11.638 5.934,11.61 5.8045,11.61 L5.8045,11.61 C5.469,11.61 5.1475,11.798 4.9925,12.1205 L4.9925,12.1205 Z" id="path-4"></path>
        <path d="M7.724,0.404 L3.2005,4.9355 L1.411,3.1385 C1.1045,2.832 0.608,2.832 0.302,3.1385 L0.302,3.1385 C-0.0045,3.445 -0.0045,3.942 0.302,4.2485 L0.302,4.2485 L2.6455,6.592 C2.793,6.738 2.9925,6.82 3.2005,6.81852022 L3.2005,6.81852022 C3.408,6.82 3.6075,6.738 3.755,6.592 L3.755,6.592 L8.8335,1.5135 C9.14,1.2075 9.14,0.7105 8.8335,0.404 L8.8335,0.404 C8.6805,0.251 8.48,0.174 8.279,0.174 L8.279,0.174 C8.078,0.174 7.8775,0.251 7.724,0.404 L7.724,0.404 Z" id="path-6"></path>
    </defs>
    <g id="03.01.2021" stroke="none" stroke-width="1" fill="none" fill-rule="evenodd">
        <g id="Accounting---Expanded" transform="translate(-390.000000, -724.000000)">
            <g id="funds-in" transform="translate(339.000000, 510.000000)">
                <g id="table" transform="translate(0.000000, 48.000000)">
                    <g id="issued" transform="translate(51.000000, 65.000000)" filter="url(#filter-1)">
                        <g transform="translate(0.000000, 101.007100)">
                            <g id="Group-3">
                                <mask id="mask-3" fill="white">
                                    <use xlink:href="#path-2"></use>
                                </mask>
                                <g id="Clip-2"></g>
                                <polygon id="Fill-1" fill="#010202" mask="url(#mask-3)" points="-5 19.007 19.584 19.007 19.584 -8 -5 -8"></polygon>
                            </g>
                            <g id="Group-6" transform="translate(10.500000, 0.500000)">
                                <mask id="mask-5" fill="white">
                                    <use xlink:href="#path-4"></use>
                                </mask>
                                <g id="Clip-5"></g>
                                <polygon id="Fill-4" fill="#010202" mask="url(#mask-5)" points="-4.2475 17.9085 12.0025 17.9085 12.0025 -4.053 -4.2475 -4.053"></polygon>
                            </g>
                            <g id="Group-9" transform="translate(5.000000, 6.000000)">
                                <mask id="mask-7" fill="white">
                                    <use xlink:href="#path-6"></use>
                                </mask>
                                <g id="Clip-8"></g>
                                <polygon id="Fill-7" fill="#010202" mask="url(#mask-7)" points="-3.835 10.725 12.9695 10.725 12.9695 -3.7325 -3.835 -3.7325"></polygon>
                            </g>
                        </g>
                    </g>
                </g>
            </g>
        </g>
    </g>
</svg>