<?xml version="1.0" encoding="UTF-8"?>
<svg width="18px" height="19px" viewBox="0 0 18 19" version="1.1" xmlns="http://www.w3.org/2000/svg" xmlns:xlink="http://www.w3.org/1999/xlink">
    <title>reconciled</title>
    <defs>
        <filter id="filter-1">
            <feColorMatrix in="SourceGraphic" type="matrix" values="0 0 0 0 0.427451 0 0 0 0 0.752941 0 0 0 0 0.070588 0 0 0 1.000000 0"></feColorMatrix>
        </filter>
        <path d="M0.0885405405,9.1547027 C0.0885405405,13.9913514 4.00864865,17.9114595 8.8452973,17.9114595 L8.8452973,17.9114595 C11.1677838,17.9114595 13.3949189,16.9890811 15.0372973,15.3467027 L15.0372973,15.3467027 C16.6796757,13.7043243 17.6020541,11.4776757 17.6020541,9.1547027 L17.6020541,9.1547027 C17.6020541,4.31854054 13.6814595,0.397945946 8.8452973,0.397945946 L8.8452973,0.397945946 C4.00864865,0.397945946 0.0885405405,4.31854054 0.0885405405,9.1547027 L0.0885405405,9.1547027 Z M1.68032432,9.1547027 C1.68032432,5.19810811 4.8887027,1.98972973 8.8452973,1.98972973 L8.8452973,1.98972973 C12.8018919,1.98972973 16.0102703,5.19810811 16.0102703,9.1547027 L16.0102703,9.1547027 C16.0102703,13.1117838 12.8018919,16.3196757 8.8452973,16.3196757 L8.8452973,16.3196757 C4.8887027,16.3196757 1.68032432,13.1117838 1.68032432,9.1547027 L1.68032432,9.1547027 Z" id="path-2"></path>
        <path d="M7.45978378,0.69227027 L3.05805405,5.1012973 L1.31740541,3.35286486 C1.01918919,3.05464865 0.536108108,3.05464865 0.237891892,3.35286486 L0.237891892,3.35286486 C-0.0603243243,3.65108108 -0.0603243243,4.13416216 0.237891892,4.43237838 L0.237891892,4.43237838 L2.51854054,6.71254054 C2.66205405,6.85508108 2.85616216,6.93437838 3.05805405,6.93341425 L3.05805405,6.93341425 C3.25994595,6.93437838 3.45454054,6.85508108 3.59756757,6.71254054 L3.59756757,6.71254054 L8.5392973,1.77178378 C8.83751351,1.47356757 8.83751351,0.99 8.5392973,0.69227027 L8.5392973,0.69227027 C8.38994595,0.543405405 8.19486486,0.468972973 7.9992973,0.468972973 L7.9992973,0.468972973 C7.80421622,0.468972973 7.60913514,0.543405405 7.45978378,0.69227027 L7.45978378,0.69227027 Z" id="path-4"></path>
    </defs>
    <g id="03.01.2021" stroke="none" stroke-width="1" fill="none" fill-rule="evenodd">
        <g id="Accounting---Expanded-Menus" transform="translate(-390.000000, -774.000000)">
            <g id="funds-in" transform="translate(339.000000, 510.000000)">
                <g id="table" transform="translate(0.000000, 48.000000)">
                    <g id="reconciled" transform="translate(51.000000, 65.000000)" filter="url(#filter-1)">
                        <g transform="translate(0.000000, 151.000000)">
                            <g id="Group-3" transform="translate(0.000000, 0.176886)">
                                <mask id="mask-3" fill="white">
                                    <use xlink:href="#path-2"></use>
                                </mask>
                                <g id="Clip-2"></g>
                                <polygon id="Fill-1" fill="#010202" mask="url(#mask-3)" points="-3.89189189 21.8918919 21.5824865 21.8918919 21.5824865 -3.582 -3.89189189 -3.582"></polygon>
                            </g>
                            <g id="Group-6" transform="translate(4.864865, 6.014724)">
                                <mask id="mask-5" fill="white">
                                    <use xlink:href="#path-4"></use>
                                </mask>
                                <g id="Clip-5"></g>
                                <polygon id="Fill-4" fill="#010202" mask="url(#mask-5)" points="-3.78681081 10.7343243 12.5635135 10.7343243 12.5635135 -3.33243243 -3.78681081 -3.33243243"></polygon>
                            </g>
                        </g>
                    </g>
                </g>
            </g>
        </g>
    </g>
</svg>