<svg xmlns="http://www.w3.org/2000/svg" width="34" height="34" viewBox="0 0 34 34">
    <g fill="none" fill-rule="evenodd">
        <g stroke="#000">
            <g transform="translate(-694 -1218) translate(694 1218)">
                <path fill="#000" fill-rule="nonzero" stroke-width=".25" d="M24.138 20.623c-1.21-.828-1.235-1.886-1.173-3.686.095-1.126 0-2.26-.28-3.352-.789-2.602-2.676-4.228-5.106-4.451v-.547c0-.324-.26-.587-.58-.587-.319 0-.578.263-.578.587v.547c-2.43.223-4.317 1.849-5.106 4.45-.28 1.094-.374 2.227-.279 3.353.061 1.798.039 2.858-1.172 3.686-.705.454-1.026 1.327-.784 2.137.177.677.77 1.157 1.461 1.18h4.221C14.999 25.444 16.033 26 17 26c.967 0 2.001-.556 2.238-2.06h4.22c.691-.023 1.285-.503 1.462-1.18.242-.81-.078-1.683-.782-2.137h0zM17 24.827c-.524.022-.98-.36-1.055-.887h2.11c-.076.526-.531.909-1.055.887zm6.813-2.41c-.05.168-.183.352-.355.352H10.541c-.17 0-.304-.182-.355-.352-.093-.317.042-.658.326-.821 1.798-1.233 1.738-2.993 1.68-4.7-.087-.995-.01-1.998.23-2.967.703-2.32 2.371-3.65 4.578-3.65 2.206 0 3.875 1.329 4.578 3.65.24.969.317 1.972.229 2.967-.058 1.705-.116 3.468 1.681 4.7.284.163.419.504.325.82h0z"/>
                <circle cx="17" cy="17" r="17"/>
            </g>
        </g>
    </g>
</svg>
