<svg xmlns="http://www.w3.org/2000/svg" width="18" height="18" viewBox="0 0 18 18">
    <g fill="none" fill-rule="evenodd">
        <g fill="#000" fill-rule="nonzero">
            <g>
                <path d="M9 18c-4.97 0-9-4.03-9-9s4.03-9 9-9 9 4.03 9 9c0 2.387-.948 4.676-2.636 6.364C13.676 17.052 11.387 18 9 18zM8.922 1.636c-4.024 0-7.286 3.262-7.286 7.286 0 4.024 3.262 7.286 7.286 7.286 4.024 0 7.286-3.262 7.286-7.286 0-4.024-3.262-7.286-7.286-7.286z" transform="translate(-701 -1357) translate(701 1357)"/>
                <path d="M7.221 12.789c-.208.001-.408-.08-.555-.227l-2.348-2.348c-.307-.307-.307-.805 0-1.111.307-.307.804-.307 1.111 0l1.792 1.8 4.532-4.54c.307-.307.805-.307 1.111 0 .307.307.307.805 0 1.112l-5.087 5.087c-.148.146-.348.228-.556.227z" transform="translate(-701 -1357) translate(701 1357)"/>
            </g>
        </g>
    </g>
</svg>
