<svg xmlns="http://www.w3.org/2000/svg" width="27" height="27" viewBox="0 0 27 27">
    <g fill="none" fill-rule="evenodd" stroke="#010101">
        <circle cx="13.5" cy="13.5" r="13.5"/>
        <g fill="#010101" fill-rule="nonzero" stroke-width=".25">
            <path d="M6.33 8.85c-.063 0-.126-.023-.176-.069-.11-.098-.118-.265-.02-.373l3.41-3.787c.097-.109.264-.118.373-.02.109.098.117.266.02.374l-3.41 3.787c-.052.058-.124.087-.197.087zM5.16 7.795c-.063 0-.126-.022-.177-.068-.108-.098-.117-.265-.02-.373l3.41-3.787c.098-.109.265-.117.374-.02.108.099.117.266.02.374l-3.41 3.787c-.052.058-.124.087-.197.087zM12.468 2.438c-.063 0-.126-.023-.177-.068l-1.506-1.357c-.109-.098-.117-.265-.02-.373.098-.11.265-.118.374-.02l1.507 1.357c.108.097.117.265.02.373-.053.059-.125.088-.198.088z" transform="translate(6.353 6.353)"/>
            <path d="M8.447 3.739c-.063 0-.127-.023-.177-.068-.109-.098-.117-.265-.02-.374l.18-.2c.099-.108.266-.116.374-.018.109.097.117.265.02.373l-.18.2c-.052.058-.124.087-.197.087zM14.03 3.844c-.064 0-.127-.023-.178-.068l-.288-.26c-.108-.098-.117-.265-.02-.373.098-.109.266-.118.374-.02l.288.26c.109.097.117.264.02.373-.052.058-.125.088-.197.088zM12.452 5.595c-.063 0-.127-.022-.177-.068l-.288-.259c-.109-.097-.117-.265-.02-.373.098-.11.265-.118.374-.02l.288.259c.108.098.117.265.02.374-.053.058-.125.087-.197.087z" transform="translate(6.353 6.353)"/>
            <path d="M12.452 5.595c-.063 0-.127-.022-.177-.068-.109-.098-.118-.265-.02-.373l1.577-1.752c.098-.11.265-.118.374-.02.109.098.117.265.02.374l-1.578 1.752c-.052.058-.124.087-.196.087zM.536 12.525c-.063 0-.126-.023-.177-.068-.108-.098-.117-.265-.02-.374L4.683 7.26c.098-.108.266-.117.374-.02.109.098.118.266.02.374L.733 12.437c-.052.058-.124.088-.197.088z" transform="translate(6.353 6.353)"/>
            <path d="M12.164 5.336c-.063 0-.127-.022-.177-.068-.28-.251-.44-.612-.438-.987 0-.146.119-.264.265-.264 0 0 0 0 0 0 .147 0 .265.119.265.265-.001.226.094.442.262.593.109.098.117.265.02.374-.052.058-.124.087-.197.087zM10.021 5.156c-.028 0-.056-.004-.083-.013L8.84 4.779c-.14-.046-.214-.196-.168-.335.046-.139.196-.214.334-.168l1.097.364c.14.046.215.196.168.335-.037.11-.14.181-.251.181zM5.661 1.84c-.067 0-.135-.026-.186-.077-.104-.103-.105-.27-.002-.374C6.948-.096 9.258-.427 11.09.585c.127.07.174.232.103.36-.07.128-.23.174-.36.104-1.626-.9-3.675-.605-4.984.713-.052.052-.12.078-.188.078z" transform="translate(6.353 6.353)"/>
            <path d="M8.924 4.792c-.1 0-.197-.058-.241-.155l-.477-1.053c-.06-.134 0-.29.132-.35.134-.061.29-.002.35.131l.477 1.053c.06.133.001.29-.132.35-.035.017-.072.024-.109.024z" transform="translate(6.353 6.353)"/>
            <path d="M8.627 3.54c-.063 0-.127-.023-.177-.068-.109-.098-.117-.265-.02-.374.142-.158.214-.361.203-.573-.01-.212-.104-.407-.261-.549-.073-.066-.157-.116-.248-.151-.137-.053-.205-.206-.153-.342.052-.137.205-.205.342-.153.152.058.292.144.413.253.263.236.417.561.436.914.018.353-.102.692-.338.955-.052.058-.125.088-.197.088z" transform="translate(6.353 6.353)"/>
            <path d="M8.218 1.842c-.031 0-.063-.005-.094-.017-.764-.292-1.605-.293-2.369-.002-.136.052-.289-.017-.341-.153-.052-.137.017-.29.153-.342.885-.337 1.86-.336 2.746.002.137.053.205.206.153.342-.04.106-.141.17-.248.17zM12.862 3.322c-.195 0-.385-.072-.532-.205-.157-.141-.25-.336-.261-.548-.011-.212.06-.415.203-.573.097-.109.265-.117.374-.02.108.099.117.266.02.375-.048.052-.072.12-.069.19.004.071.035.136.088.183.056.05.13.074.205.067.148-.016.276.09.292.235.016.145-.09.275-.235.291-.028.003-.057.005-.085.005z" transform="translate(6.353 6.353)"/>
            <path d="M13.741 3.584c-.063 0-.126-.022-.177-.068-.167-.15-.392-.223-.616-.199-.147.016-.277-.09-.292-.235-.016-.145.089-.275.234-.291.375-.041.749.08 1.028.332.11.098.118.265.02.374-.052.058-.124.087-.197.087zM11.814 4.546h-.001c-.146 0-.264-.12-.264-.265 0-.071-.027-.138-.077-.188-.053-.053-.126-.078-.201-.078-.14 0-.264-.109-.271-.25-.008-.146.096-.27.243-.278l.043-.001c.213 0 .412.084.562.234.15.15.231.35.23.563 0 .145-.118.263-.264.263z" transform="translate(6.353 6.353)"/>
            <path d="M10.891 4.19c-.063 0-.126-.022-.177-.068-.109-.098-.118-.265-.02-.374.14-.155.34-.25.549-.261.14-.009.27.104.278.25.007.147-.105.27-.25.278-.07.004-.137.036-.183.087-.053.058-.125.088-.197.088z" transform="translate(6.353 6.353)"/>
            <path d="M10.021 5.156c-.063 0-.127-.022-.177-.068-.109-.098-.117-.265-.02-.374l.87-.966c.098-.109.265-.117.374-.02.108.099.117.266.02.374l-.87.967c-.053.058-.124.087-.197.087zM5.976 8.066c-.028 0-.056-.004-.083-.013l-1.098-.364c-.138-.046-.213-.196-.167-.335.046-.138.195-.214.334-.168l1.097.364c.14.046.214.196.168.335-.037.11-.14.181-.251.181z" transform="translate(6.353 6.353)"/>
            <path d="M6.453 9.12c-.1 0-.197-.059-.242-.156L5.735 7.91c-.06-.133-.001-.29.132-.35.132-.06.29-.002.35.131l.477 1.053c.06.134 0 .29-.132.35-.036.017-.073.024-.11.024z" transform="translate(6.353 6.353)"/>
            <path d="M2.11 13.942c-.063 0-.127-.022-.177-.068-.109-.098-.117-.265-.02-.374l4.343-4.823c.098-.108.265-.117.374-.02.109.099.117.266.02.374l-4.343 4.823c-.052.058-.124.088-.197.088z" transform="translate(6.353 6.353)"/>
            <path d="M1.323 14.292c-.316 0-.633-.112-.885-.34-.543-.488-.587-1.327-.098-1.869.098-.108.265-.117.374-.02.108.098.117.266.02.374-.294.326-.267.829.058 1.122.326.293.828.267 1.122-.059.097-.109.264-.118.374-.02.108.098.117.266.02.374-.262.29-.623.438-.985.438z" transform="translate(6.353 6.353)"/>
        </g>
    </g>
</svg>
