<svg xmlns="http://www.w3.org/2000/svg" width="15" height="17" viewBox="0 0 15 17">
    <path fill="#010101" d="M14.598 5.156c.221 0 .402-.174.402-.386V3.48c0-.212-.18-.386-.402-.386h-.67V1.547c0-.854-.72-1.547-1.607-1.547H1.607C.72 0 0 .693 0 1.547v13.406c0 .854.72 1.547 1.607 1.547h10.714c.888 0 1.608-.693 1.608-1.547v-1.547h.67c.22 0 .401-.174.401-.386v-1.29c0-.212-.18-.386-.402-.386h-.67V9.28h.67c.221 0 .402-.174.402-.386v-1.29c0-.212-.18-.386-.402-.386h-.67V5.156h.67zm-2.277 9.797H1.607V1.547h10.714v13.406zM6.964 8.25c1.182 0 2.143-.925 2.143-2.063 0-1.137-.96-2.062-2.143-2.062-1.182 0-2.143.925-2.143 2.063 0 1.137.961 2.062 2.143 2.062zm-3 4.125h6c.415 0 .75-.277.75-.619v-.619c0-1.024-1.008-1.856-2.25-1.856-.361 0-.626.258-1.5.258-.9 0-1.118-.258-1.5-.258-1.242 0-2.25.832-2.25 1.856v.62c0 .34.335.618.75.618z"/>
</svg>
