<svg xmlns="http://www.w3.org/2000/svg" width="14" height="19" viewBox="0 0 14 19">
    <g fill="none" fill-rule="evenodd">
        <g fill="#000">
            <g>
                <path d="M2.333 1.583c-.429 0-.777.355-.777.792v14.25c0 .437.348.792.777.792h9.334c.429 0 .777-.355.777-.792v-9.5h-3.11C8.043 7.125 7 6.062 7 4.75V1.583H2.333zm6.223 1.12l2.789 2.839H9.333c-.429 0-.777-.355-.777-.792V2.703zM0 2.375C0 1.063 1.045 0 2.333 0h5.445c.206 0 .404.083.55.232l5.444 5.542c.146.148.228.35.228.56v10.291C14 17.937 12.955 19 11.667 19H2.333C1.045 19 0 17.937 0 16.625V2.375z" transform="translate(-282 -1317) translate(282 1317)"/>
            </g>
        </g>
    </g>
</svg>
