<svg xmlns="http://www.w3.org/2000/svg" width="12" height="16" viewBox="0 0 12 16">
    <g fill="none" fill-rule="evenodd">
        <g fill="#000">
            <g>
                <path d="M12 6c0-.552-.448-1-1-1s-1 .448-1 1c0 2.21-1.79 4-4 4S2 8.21 2 6c0-.357-.19-.687-.5-.866-.31-.179-.69-.179-1 0-.31.179-.5.509-.5.866.007 2.922 2.119 5.414 5 5.899V14H3c-.552 0-1 .448-1 1s.448 1 1 1h6c.552 0 1-.448 1-1s-.448-1-1-1H7v-2.101c2.881-.485 4.993-2.977 5-5.899z" transform="translate(-283 -1356) translate(283 1356)"/>
                <path d="M6 8c1.104-.001 1.999-.896 2-2V2c0-1.105-.895-2-2-2S4 .895 4 2v4c.001 1.104.896 1.999 2 2z" transform="translate(-283 -1356) translate(283 1356)"/>
            </g>
        </g>
    </g>
</svg>
