<?xml version="1.0" encoding="UTF-8"?>
<svg width="17px" height="17px" viewBox="0 0 17 17" version="1.1" xmlns="http://www.w3.org/2000/svg" xmlns:xlink="http://www.w3.org/1999/xlink">
    <title>edit</title>
    <defs>
        <filter id="filter-1">
            <feColorMatrix in="SourceGraphic" type="matrix" values="0 0 0 0 0.011765 0 0 0 0 0.764706 0 0 0 0 1.000000 0 0 0 1.000000 0"></feColorMatrix>
        </filter>
    </defs>
    <g id="03.01.2021" stroke="none" stroke-width="1" fill="none" fill-rule="evenodd">
        <g id="Accounting---Expanded" transform="translate(-839.000000, -989.000000)">
            <g id="funds-out" transform="translate(339.000000, 984.000000)">
                <g id="edit" transform="translate(500.000000, 5.000000)" filter="url(#filter-1)">
                    <g id="Fill-1010" fill="#000000">
                        <path d="M11.4086035,0.673405875 C12.306478,-0.224468625 13.7633196,-0.224468625 14.6611941,0.673405875 L16.3265941,2.33803913 C17.2244686,3.23668039 17.2244686,4.69352202 16.3265941,5.59139652 L5.59197158,16.3260191 C5.16028641,16.7577042 4.57524948,17 3.96490951,17 L0.766758753,17 C0.343507921,17 0,16.6564921 0,16.2332412 L0,13.0343237 C0,12.4247505 0.242295766,11.8397136 0.673980944,11.4080284 L11.4086035,0.673405875 Z M13.5769972,1.75760275 C13.2771946,1.45856684 12.792603,1.45856684 12.4928004,1.75760275 L11.0520607,3.19834245 L13.8016576,5.94793934 L15.2423972,4.50719964 C15.5414332,4.20739697 15.5414332,3.72280543 15.2423972,3.42300276 L13.5769972,1.75760275 Z M12.7174607,7.03213621 L9.96786379,4.28253932 L1.75817782,12.4922253 C1.61402717,12.6363759 1.53351751,12.8311327 1.53351751,13.0343237 L1.53351751,15.4664825 L3.96490951,15.4664825 C4.16886734,15.4664825 4.36362406,15.3859728 4.50777471,15.2418222 L12.7174607,7.03213621 L12.7174607,7.03213621 Z" id="Fill-1009"></path>
                    </g>
                </g>
            </g>
        </g>
    </g>
</svg>