<svg xmlns="http://www.w3.org/2000/svg" width="24" height="24" viewBox="0 0 24 24">
    <path fill="#010101" fill-rule="evenodd" d="M12 21.635c1.73 0 3.346-.443 4.846-1.327 1.462-.846 2.616-2 3.462-3.462.884-1.5 1.327-3.115 1.327-4.846 0-1.73-.443-3.346-1.327-4.846-.846-1.462-2-2.616-3.462-3.462-1.5-.884-3.115-1.327-4.846-1.327-1.73 0-3.346.443-4.846 1.327-1.462.846-2.616 2-3.462 3.462-.884 1.5-1.327 3.115-1.327 4.846 0 1.73.443 3.346 1.327 4.846.846 1.462 2 2.616 3.462 3.462 1.5.884 3.115 1.327 4.846 1.327zM12 0c2.192 0 4.221.548 6.087 1.644 1.807 1.039 3.23 2.462 4.269 4.27C23.452 7.778 24 9.807 24 12s-.548 4.221-1.644 6.087c-1.039 1.807-2.462 3.23-4.27 4.269C16.222 23.452 14.193 24 12 24s-4.221-.548-6.087-1.644c-1.807-1.058-3.23-2.49-4.269-4.298C.548 16.192 0 14.173 0 12s.548-4.192 1.644-6.058c1.058-1.807 2.49-3.24 4.298-4.298C7.808.548 9.827 0 12 0zm0 5.971c.653 0 1.183.53 1.183 1.183V12c0 .653-.53 1.183-1.183 1.183s-1.183-.53-1.183-1.183V7.154c0-.653.53-1.183 1.183-1.183zm0 9.635c.653 0 1.183.53 1.183 1.182v.058c0 .653-.53 1.183-1.183 1.183s-1.183-.53-1.183-1.183v-.058c0-.653.53-1.182 1.183-1.182z"/>
</svg>
