<svg xmlns="http://www.w3.org/2000/svg" width="27" height="27" viewBox="0 0 27 27">
    <g fill="none" fill-rule="evenodd" stroke="#010101">
        <circle cx="13.5" cy="13.5" r="13.5"/>
        <path fill="#010101" fill-rule="nonzero" stroke-width=".25" d="M6.652 9.27c-.14 0-.252.112-.252.251V17.52c0 .14.113.252.252.252h2.835c.033 0 .064-.006.094-.018h7.773c.03.012.063.018.095.018h2.836c.139 0 .252-.113.252-.252v-2.617-2.745V9.52c0-.139-.113-.252-.252-.252h-2.836c-.033 0-.065.007-.096.02h-7.77c-.03-.013-.063-.02-.096-.02H6.652zm.252.52h2.328c-.046 1.17-1.003 2.133-2.217 2.133-.022 0-.062-.006-.11-.014V9.791zm2.831 0h7.466c.047 1.443 1.227 2.637 2.684 2.637.06 0 .1-.006.147-.011v2.209c-.046-.005-.088-.012-.147-.012 0 0 0 0 0 0-1.457 0-2.636 1.194-2.684 2.636H9.735c-.047-1.442-1.231-2.636-2.72-2.636 0 0 0 0 0 0-.04 0-.073.006-.11.01v-2.205c.037.004.07.01.11.01 1.489 0 2.673-1.195 2.72-2.637h0zm7.97 0h2.327v2.118c-.054.008-.102.015-.147.015-1.175 0-2.135-.963-2.18-2.132h0zm-4.254 1.025c-1.482 0-2.688 1.21-2.688 2.724 0 1.482 1.206 2.688 2.688 2.688 1.48 0 2.722-1.202 2.722-2.688 0-1.518-1.241-2.724-2.722-2.724h0zm0 .504c1.208 0 2.218.976 2.218 2.22 0 1.204-1.01 2.184-2.218 2.184-1.21 0-2.185-.975-2.185-2.184 0-1.249.976-2.22 2.185-2.22h0zm-.235.653v.332c-.33.067-.58.36-.58.709 0 .416.326.76.723.76h.218c.11 0 .22.09.22.254 0 .11-.11.22-.22.22h-.616c-.091-.002-.177.045-.223.124-.046.08-.046.177 0 .256.046.079.132.126.223.124h.255v.318h.504v-.333c.33-.067.581-.36.581-.709 0-.416-.326-.76-.724-.76h-.218c-.11 0-.22-.09-.22-.254 0-.11.11-.22.22-.22h.616c.092.002.177-.045.224-.124.046-.08.046-.177 0-.256-.047-.079-.132-.126-.224-.124h-.255v-.317h-.504zm-6.2 3.146c1.213 0 2.17.962 2.216 2.13H6.904v-2.116c.049-.008.09-.014.111-.014h0zm12.869 0c.045 0 .093.007.147.015v2.116h-2.328c.047-1.17 1.006-2.131 2.18-2.131h0z"/>
    </g>
</svg>
