<svg xmlns="http://www.w3.org/2000/svg" width="18" height="14" viewBox="0 0 18 14">
    <path fill="#010101" fill-rule="evenodd" d="M2.25 1.5c-.414 0-.75.336-.75.75v9c0 .414.336.75.75.75h13.5c.414 0 .75-.336.75-.75V4.5c0-.414-.336-.75-.75-.75h-7.5c-.199 0-.39-.079-.53-.22L5.91 1.72c-.142-.141-.332-.22-.532-.22H2.25zM0 2.25C0 1.007 1.007 0 2.25 0h3.128c.597 0 1.17.237 1.592.66l1.59 1.59h7.19C16.993 2.25 18 3.257 18 4.5v6.75c0 1.243-1.007 2.25-2.25 2.25H2.25C1.007 13.5 0 12.493 0 11.25v-9z"/>
</svg>
