<svg xmlns="http://www.w3.org/2000/svg" width="11" height="14" viewBox="0 0 11 14">
    <path fill="#010101" d="M3.64.002C2.466.034 1.3.371.235 1.03c-.142.087-.233.247-.234.411v12.05c0 .27.224.488.5.488s.5-.219.5-.488V7.587c.621-.353 2.67-1.32 5.135-.28 1.473.622 2.593.748 3.365.707.772-.042 1.245-.285 1.245-.285.153-.083.254-.25.255-.421V1.435c.002-.169-.095-.335-.243-.422-.149-.087-.345-.09-.497-.01 0 0-.2.123-.807.153-.607.029-1.568-.065-2.927-.62-.77-.314-1.573-.491-2.38-.528C3.978 0 3.809-.002 3.64.002zm.063.966c.132-.003.264-.002.396.005.686.033 1.374.19 2.042.462 1.477.603 2.597.733 3.364.696.21-.01.334-.05.495-.081v4.912c-.127.032-.286.067-.552.081-.606.033-1.567-.06-2.917-.63C4.157 5.412 2.078 6.03 1 6.51V1.725c.86-.482 1.778-.736 2.703-.757z"/>
</svg>
