<svg xmlns="http://www.w3.org/2000/svg" width="27" height="27" viewBox="0 0 27 27">
    <g fill="none" fill-rule="evenodd">
        <circle cx="13.5" cy="13.5" r="13.5" stroke="#010101"/>
        <g fill="#010101">
            <path d="M7.08 1.212c-.196-.14-.463-.14-.66 0L2.811 3.793v6.459c0 .305.252.553.563.553h6.75c.31 0 .562-.248.562-.553V3.793l-3.606-2.58zm4.732 3.386l.795.568c.25.18.603.125.785-.122.183-.247.127-.594-.124-.773L7.743.317c-.593-.423-1.394-.423-1.986 0L.232 4.271c-.252.18-.307.526-.125.773.183.247.535.302.786.122l.794-.568v5.654c0 .917.756 1.66 1.688 1.66h6.75c.932 0 1.687-.743 1.687-1.66V4.598z" transform="translate(7.147 7.941)"/>
            <path fill-rule="nonzero" d="M4.92 4.133l1.83 1.83 1.83-1.83c.193-.193.493-.214.71-.064l.077.064c.217.217.217.57 0 .787L7.536 6.75l1.83 1.83c.218.218.218.57 0 .787-.216.217-.568.217-.786 0L6.75 7.536l-1.83 1.83c-.193.194-.493.215-.71.065l-.077-.064c-.217-.217-.217-.57 0-.787l1.83-1.83-1.83-1.83c-.217-.218-.217-.57 0-.787.217-.217.57-.217.787 0z" transform="translate(7.147 7.941)"/>
        </g>
    </g>
</svg>
