<svg xmlns="http://www.w3.org/2000/svg" width="17" height="17" viewBox="0 0 17 17">
    <g fill="none" fill-rule="evenodd">
        <g fill="#000">
            <g>
                <path d="M11.409.673c.897-.897 2.354-.897 3.252 0l1.666 1.665c.897.899.897 2.356 0 3.253L5.592 16.326c-.432.432-1.017.674-1.627.674H.767C.344 17 0 16.656 0 16.233v-3.199c0-.61.242-1.194.674-1.626L11.409.673zm2.168 1.085c-.3-.3-.784-.3-1.084 0l-1.44 1.44 2.749 2.75 1.44-1.44c.3-.3.3-.785 0-1.085l-1.665-1.665zm-.86 5.274l-2.75-2.75-8.209 8.21c-.144.144-.224.34-.224.542v2.432h2.43c.205 0 .4-.08.544-.224l8.21-8.21z" transform="translate(-61 -1313) translate(61 1313)"/>
            </g>
        </g>
    </g>
</svg>
