<svg xmlns="http://www.w3.org/2000/svg" width="27" height="27" viewBox="0 0 27 27">
    <g fill="none" fill-rule="evenodd">
        <g stroke="#010101">
            <circle cx="13.5" cy="13.5" r="13.5"/>
            <path fill="#010101" fill-rule="nonzero" stroke-width=".5" d="M14.133 20.646c-.042 0-.084-.003-.126-.01h0L8.77 19.93c-.473-.065-.829-.475-.829-.956V8.025c0-.482.356-.893.829-.956l5.237-.708c.272-.034.544.045.751.227.21.182.33.448.33.729V19.68c0 .28-.12.546-.33.73-.174.152-.397.235-.625.235zm-.047-.599c.103.01.202-.016.28-.086.08-.07.127-.172.127-.28V7.317c0-.109-.046-.211-.127-.282-.078-.068-.18-.1-.28-.085L8.85 7.66c-.178.024-.312.182-.312.366v10.948c0 .184.134.341.312.365l5.237.71z"/>
            <path fill="#010101" fill-rule="nonzero" stroke-width=".5" d="M17.47 18.859h-.595V8.615c0-.197-.16-.357-.358-.357h-1.826v-.596h1.826c.526 0 .954.428.954.953V18.86z"/>
            <circle cx="12.706" cy="14.094" r="1" fill="#010101" fill-rule="nonzero" stroke-width=".5"/>
        </g>
    </g>
</svg>
