<svg xmlns="http://www.w3.org/2000/svg" width="19" height="20" viewBox="0 0 19 20">
    <g fill="#010101">
        <path d="M9.5 1.535c4.407 0 7.98 3.61 7.98 8.061 0 4.452-3.573 8.06-7.98 8.06s-7.98-3.608-7.98-8.06 3.573-8.06 7.98-8.06M9.5 0C4.253 0 0 4.296 0 9.596s4.253 9.596 9.5 9.596S19 14.896 19 9.596c0-2.545-1-4.986-2.782-6.785C14.436 1.01 12.02 0 9.5 0z"/>
        <path d="M9.587 4.51l.206.02c.508.032 1.005.162 1.465.383.41.191.76.493 1.01.873.191.3.309.64.344.995.04.306.015.617-.072.913-.108.353-.297.676-.551.942-.29.294-.609.558-.95.79-.19.132-.36.27-.538.408-.161.135-.283.312-.351.512-.038.104-.082.208-.122.311-.1.283-.364.472-.661.474-.164.019-.33-.008-.48-.076-.232-.115-.393-.336-.432-.593-.06-.357.021-.723.228-1.018.164-.242.366-.457.597-.637.248-.205.505-.4.76-.606.21-.164.388-.368.52-.601.21-.405.158-.897-.133-1.247-.15-.166-.35-.278-.57-.32-.292-.068-.596-.063-.885.016-.3.083-.55.293-.686.576-.09.169-.167.342-.25.512-.062.13-.145.247-.246.348-.177.157-.41.232-.644.209-.142-.004-.282-.042-.407-.111-.234-.123-.38-.367-.38-.634-.01-.423.125-.838.38-1.174.296-.404.688-.725 1.14-.933.341-.163.707-.27 1.081-.315l.213-.02.414.003zM9.21 14.682c-.058-.012-.115-.021-.17-.037-.52-.137-.853-.647-.775-1.184.079-.536.545-.927 1.081-.907.537.02.972.446 1.01.987.04.54-.332 1.024-.86 1.122l-.093.019H9.21z"/>
    </g>
</svg>
