<svg xmlns="http://www.w3.org/2000/svg" width="19" height="19" viewBox="0 0 19 19">
    <g fill="none" fill-rule="evenodd">
        <g fill="#000" fill-rule="nonzero">
            <g>
                <path d="M15.042 15.833H3.958c-.437 0-.791-.354-.791-.791V9.5c0-3.498 2.835-6.333 6.333-6.333s6.333 2.835 6.333 6.333v5.542c0 .437-.354.791-.791.791zM4.75 14.25h9.5V9.5c0-2.623-2.127-4.75-4.75-4.75S4.75 6.877 4.75 9.5v4.75z" transform="translate(-703 -1318) translate(703 1318)"/>
                <path d="M9.5 4.75c-.437 0-.792-.354-.792-.792V2.375c0-.437.355-.792.792-.792.437 0 .792.355.792.792v1.583c0 .438-.355.792-.792.792zM16.625 15.833H2.375c-.437 0-.792-.354-.792-.791 0-.438.355-.792.792-.792h14.25c.437 0 .792.354.792.792 0 .437-.355.791-.792.791z" transform="translate(-703 -1318) translate(703 1318)"/>
                <path d="M9.5 19c-1.312 0-2.375-1.063-2.375-2.375S8.188 14.25 9.5 14.25s2.375 1.063 2.375 2.375S10.812 19 9.5 19zm0-3.167c-.437 0-.792.355-.792.792 0 .437.355.792.792.792.437 0 .792-.355.792-.792 0-.437-.355-.792-.792-.792zM5.542 3.167c-.438 0-.792-.355-.792-.792V.792c0-.438.354-.792.792-.792.437 0 .791.354.791.792v1.583c0 .437-.354.792-.791.792zM2.375 6.333H.792C.354 6.333 0 5.98 0 5.542c0-.438.354-.792.792-.792h1.583c.437 0 .792.354.792.792 0 .437-.355.791-.792.791zM3.167 3.958c-.21.002-.413-.081-.562-.23L1.02 2.146c-.31-.31-.31-.813 0-1.124.31-.31.814-.31 1.124 0L3.73 2.605c.15.148.234.35.234.562 0 .21-.084.413-.234.562-.15.148-.352.23-.562.23zM13.458 3.167c-.437 0-.791-.355-.791-.792V.792c0-.438.354-.792.791-.792.438 0 .792.354.792.792v1.583c0 .437-.354.792-.792.792zM18.208 6.333h-1.583c-.437 0-.792-.354-.792-.791 0-.438.355-.792.792-.792h1.583c.438 0 .792.354.792.792 0 .437-.354.791-.792.791zM15.833 3.958c-.21.002-.412-.081-.562-.23-.15-.148-.234-.35-.234-.561 0-.211.084-.414.234-.562l1.584-1.584c.31-.31.813-.31 1.124 0 .31.31.31.814 0 1.124L16.395 3.73c-.149.148-.351.23-.562.23z" transform="translate(-703 -1318) translate(703 1318)"/>
            </g>
        </g>
    </g>
</svg>
