<svg xmlns="http://www.w3.org/2000/svg" width="24" height="18" viewBox="0 0 24 18">
    <defs>
        <filter id="mj7r8k5ifa">
            <feColorMatrix in="SourceGraphic" values="0 0 0 0 0.003922 0 0 0 0 0.003922 0 0 0 0 0.003922 0 0 0 1.000000 0"/>
        </filter>
    </defs>
    <g fill="none" fill-rule="evenodd">
        <g>
            <g filter="url(#mj7r8k5ifa)" transform="translate(-58 -1393) translate(58 1393)">
                <path fill="#8B8B8B" d="M3 1.937c-.552 0-1 .433-1 .968V16.06l2.293-2.22c.187-.183.442-.284.707-.284h16c.552 0 1-.434 1-.969V2.905c0-.535-.448-.968-1-.968H3zm-3 .968C0 1.3 1.343 0 3 0h18c1.657 0 3 1.3 3 2.905v9.682c0 1.605-1.343 2.905-3 2.905H5.414l-2 1.937C2.154 18.649 0 17.785 0 16.059V2.906zM7 5.81c0-.535.448-.969 1-.969h3c.552 0 1 .434 1 .969 0 .534-.448.968-1 .968H8c-.552 0-1-.434-1-.968zm0 3.873c0-.535.448-.969 1-.969h8c.552 0 1 .434 1 .969 0 .534-.448.968-1 .968H8c-.552 0-1-.434-1-.968z"/>
            </g>
        </g>
    </g>
</svg>
