<svg xmlns="http://www.w3.org/2000/svg" width="34" height="34" viewBox="0 0 34 34">
    <g fill="none" fill-rule="evenodd">
        <g>
            <g transform="translate(-694 -1265) translate(694 1265)">
                <circle cx="17" cy="17" r="17" stroke="#000"/>
                <path fill="#000" d="M10.25 11.5c-.414 0-.75.336-.75.75v9c0 .414.336.75.75.75h13.5c.414 0 .75-.336.75-.75V14.5c0-.414-.336-.75-.75-.75h-7.5c-.199 0-.39-.079-.53-.22l-1.81-1.81c-.142-.141-.332-.22-.532-.22H10.25zM8 12.25C8 11.007 9.007 10 10.25 10h3.128c.597 0 1.17.237 1.592.66l1.59 1.59h7.19c1.243 0 2.25 1.007 2.25 2.25v6.75c0 1.243-1.007 2.25-2.25 2.25h-13.5C9.007 23.5 8 22.493 8 21.25v-9z"/>
            </g>
        </g>
    </g>
</svg>
