<svg xmlns="http://www.w3.org/2000/svg" width="14" height="8" viewBox="0 0 14 8">
    <g fill="none" fill-rule="evenodd">
        <g fill="#000" fill-rule="nonzero">
            <g>
                <path d="M13.925 4.379c.1-.243.1-.516 0-.76-.048-.122-.119-.234-.21-.329L10.714.294c-.392-.392-1.028-.392-1.42 0-.393.391-.393 1.026 0 1.418L10.593 3H1c-.552 0-1 .448-1 1 0 .55.448.998 1 .998h9.594l-1.3 1.288c-.19.188-.297.443-.297.71 0 .266.107.521.296.709.188.189.444.295.71.295.267 0 .523-.106.71-.295l3.002-2.997c.091-.095.162-.207.21-.33z" transform="translate(-281 -1394) translate(281 1394)"/>
            </g>
        </g>
    </g>
</svg>
