<svg xmlns="http://www.w3.org/2000/svg" width="16" height="10" viewBox="0 0 16 10">
    <g fill="none" fill-rule="evenodd">
        <g fill="#000" fill-rule="nonzero">
            <g>
                <path d="M8 2.083c-.294.005-.587.048-.868.13.13.215.2.457.201.704 0 .805-.696 1.458-1.555 1.458-.263-.002-.522-.067-.75-.189C4.658 5.39 5.15 6.68 6.25 7.39c1.1.71 2.562.68 3.628-.075 1.066-.754 1.497-2.063 1.071-3.25C10.524 2.877 9.336 2.08 8 2.084zm7.903 2.537C14.397 1.864 11.415 0 8 0 4.585 0 1.602 1.866.097 4.62c-.13.239-.13.521 0 .76C1.603 8.136 4.585 10 8 10c3.415 0 6.398-1.866 7.903-4.62.13-.239.13-.521 0-.76zM8 8.75C5.26 8.75 2.747 7.318 1.39 5 2.748 2.682 5.26 1.25 8 1.25S13.253 2.682 14.61 5C13.252 7.318 10.74 8.75 8 8.75z" transform="translate(-502 -1325) translate(502 1325)"/>
            </g>
        </g>
    </g>
</svg>
