<svg xmlns="http://www.w3.org/2000/svg" width="21" height="16" viewBox="0 0 21 16">
    <g fill="none" fill-rule="evenodd">
        <g fill="#000">
            <g>
                <path d="M10.077 1.6c-1.987 0-3.777.815-5.013 2.126-.314.328-.86.368-1.218.072-.359-.287-.395-.791-.082-1.127C5.311 1.04 7.564 0 10.077 0c4.634 0 8.368 3.51 8.459 7.837l.42-.4c.334-.312.88-.32 1.221-.008.341.304.347.807.014 1.127l-1.9 1.8c-.162.152-.384.24-.617.24-.232 0-.455-.088-.617-.24l-1.9-1.8c-.333-.32-.326-.823.015-1.127.34-.312.887-.304 1.22.008l.416.392c-.091-3.47-3.088-6.23-6.73-6.23zM2.763 5.397c.232 0 .455.088.617.24l1.9 1.799c.332.32.326.823-.015 1.127-.34.312-.887.304-1.22-.008l-.417-.391c.092 3.47 3.089 6.229 6.732 6.229 1.987 0 3.777-.816 5.013-2.127.313-.328.86-.368 1.218-.072.359.288.395.791.081 1.127-1.546 1.632-3.8 2.671-6.312 2.671-4.634 0-8.368-3.51-8.459-7.836l-.42.4c-.334.311-.88.32-1.221.007-.341-.304-.347-.807-.014-1.127l1.9-1.8c.162-.151.384-.24.617-.24z" transform="translate(-500 -1356) translate(500 1356)"/>
            </g>
        </g>
    </g>
</svg>
