<svg xmlns="http://www.w3.org/2000/svg" width="27" height="27" viewBox="0 0 27 27">
    <defs>
        <filter id="vswiqa5k9a">
            <feColorMatrix in="SourceGraphic" values="0 0 0 0 0.003922 0 0 0 0 0.003922 0 0 0 0 0.003922 0 0 0 1.000000 0"/>
        </filter>
    </defs>
    <g fill="none" fill-rule="evenodd" filter="url(#vswiqa5k9a)" transform="translate(-276 -1542)">
        <g transform="translate(276 1542)">
            <path fill="#03C3FF" d="M13.818 9.221c-.19-.142-.446-.142-.637 0l-3.473 2.6v6.507c0 .307.243.557.542.557h1.083V15.54c0-.923.728-1.672 1.625-1.672h1.084c.897 0 1.625.749 1.625 1.672v3.345h1.083c.299 0 .542-.25.542-.557V11.82l-3.474-2.6zm4.557 3.41l.765.573c.241.181.58.126.756-.123.176-.249.123-.598-.12-.779l-5.32-3.982c-.57-.427-1.342-.427-1.912 0l-5.32 3.982c-.243.181-.296.53-.12.779.175.25.515.304.756.123l.765-.572v5.696c0 .923.727 1.672 1.625 1.672h6.5c.897 0 1.625-.749 1.625-1.672v-5.696zm-3.792 6.254V15.54c0-.307-.242-.557-.541-.557h-1.084c-.299 0-.541.25-.541.557v3.345h2.166z"/>
            <circle cx="13.5" cy="13.5" r="13.5" stroke="#03C3FF"/>
        </g>
    </g>
</svg>
