<svg xmlns="http://www.w3.org/2000/svg" width="27" height="27" viewBox="0 0 27 27">
    <defs>
        <filter id="v1ch1yorxa">
            <feColorMatrix in="SourceGraphic" values="0 0 0 0 0.003922 0 0 0 0 0.003922 0 0 0 0 0.003922 0 0 0 1.000000 0"/>
        </filter>
    </defs>
    <g fill="none" fill-rule="evenodd" filter="url(#v1ch1yorxa)" transform="translate(-276 -1614)">
        <g transform="translate(276 1614)">
            <circle cx="13.5" cy="13.5" r="13.5" stroke="#03C3FF"/>
            <path fill="#03C3FF" fill-rule="nonzero" d="M18.026 6C19.116 6 20 6.884 20 7.974v7.18c0 1.09-.884 1.974-1.974 1.974h-.898v1c0 .985-.76 1.792-1.725 1.866l-.147.006H8.692c-1.43 0-2.599-1.114-2.687-2.522L6 17.308v-6.564c0-.985.76-1.792 1.726-1.867l.146-.005.999-.001v-.897c0-1.09.885-1.974 1.975-1.974h7.18zM8.87 9.948h-1c-.404 0-.739.304-.788.696l-.006.1v6.564c0 .842.645 1.534 1.468 1.608l.147.007h6.564c.406 0 .74-.303.79-.695l.005-.1v-1h-5.205c-1.09 0-1.974-.884-1.974-1.974L8.87 9.948zm9.155-2.871h-7.18c-.495 0-.897.402-.897.897v7.18c0 .495.402.897.897.897h7.18c.495 0 .897-.402.897-.897v-7.18c0-.495-.402-.897-.897-.897zm-1.795 5.385c.297 0 .538.24.538.538 0 .268-.195.49-.45.531l-.088.007h-3.59c-.297 0-.538-.24-.538-.538 0-.268.195-.49.45-.531l.088-.007h3.59zm0-2.872c.297 0 .538.24.538.538 0 .298-.24.539-.538.539h-3.59c-.297 0-.538-.241-.538-.539 0-.297.24-.538.538-.538z"/>
        </g>
    </g>
</svg>
