<svg xmlns="http://www.w3.org/2000/svg" width="27" height="27" viewBox="0 0 27 27">
    <defs>
        <filter id="1uzx8b816a">
            <feColorMatrix in="SourceGraphic" values="0 0 0 0 0.003922 0 0 0 0 0.003922 0 0 0 0 0.003922 0 0 0 1.000000 0"/>
        </filter>
    </defs>
    <g fill="none" fill-rule="evenodd" filter="url(#1uzx8b816a)" transform="translate(-276 -1578)">
        <g transform="translate(276 1578)">
            <circle cx="13.5" cy="13.5" r="13.5" stroke="#03C3FF"/>
            <path fill="#03C3FF" d="M14 9.167c-1.343 0-2.552.595-3.387 1.551-.212.24-.58.269-.824.053-.242-.21-.266-.578-.054-.823C10.779 8.758 12.302 8 14 8c3.13 0 5.654 2.56 5.716 5.717l.284-.292c.225-.227.594-.233.824-.006.23.222.235.59.01.823l-1.284 1.312c-.11.111-.26.175-.417.175-.157 0-.307-.064-.417-.175l-1.283-1.312c-.225-.234-.221-.601.01-.823.23-.227.599-.221.824.006l.281.286c-.062-2.532-2.086-4.544-4.548-4.544zm-5.133 2.77c.157 0 .307.065.417.176l1.283 1.312c.225.233.221.6-.01.823-.23.227-.599.221-.824-.006l-.281-.286C9.514 16.488 11.538 18.5 14 18.5c1.343 0 2.552-.595 3.387-1.552.212-.239.58-.268.824-.052.242.21.266.577.054.822-1.044 1.19-2.567 1.949-4.265 1.949-3.13 0-5.654-2.561-5.716-5.717L8 14.242c-.225.227-.594.233-.824.006-.23-.222-.235-.59-.01-.823l1.284-1.312c.11-.111.26-.175.417-.175z"/>
        </g>
    </g>
</svg>
