<svg xmlns="http://www.w3.org/2000/svg" width="18" height="18" viewBox="0 0 18 18">
    <g fill="none" fill-rule="evenodd">
        <g fill="#000" fill-rule="nonzero">
            <g>
                <path d="M9 18c-4.97 0-9-4.03-9-9s4.03-9 9-9 9 4.03 9 9-4.03 9-9 9zM9 1.8C5.024 1.8 1.8 5.024 1.8 9s3.224 7.2 7.2 7.2 7.2-3.224 7.2-7.2c0-1.91-.759-3.74-2.109-5.091C12.741 2.559 10.91 1.8 9 1.8z" transform="translate(-501 -1389) translate(501 1389)"/>
                <path d="M6.28 5.22l2.47 2.469 2.47-2.47c.266-.266.683-.29.976-.072l.084.073c.293.293.293.767 0 1.06L9.811 8.75l2.47 2.47c.292.293.292.767 0 1.06-.294.293-.768.293-1.061 0L8.75 9.811l-2.47 2.47c-.266.266-.683.29-.976.072l-.084-.073c-.293-.293-.293-.767 0-1.06l2.469-2.47-2.47-2.47c-.292-.293-.292-.767 0-1.06.294-.293.768-.293 1.061 0z" transform="translate(-501 -1389) translate(501 1389)"/>
            </g>
        </g>
    </g>
</svg>
