<svg xmlns="http://www.w3.org/2000/svg" width="18" height="18" viewBox="0 0 18 18">
    <path fill="#010101" fill-rule="evenodd" d="M9 .818C9 .367 9.367 0 9.818 0 14.337 0 18 3.663 18 8.182c0 .451-.367.818-.818.818h-.858c.026.27.04.542.04.818C16.364 14.337 12.7 18 8.182 18S0 14.337 0 9.818s3.663-8.182 8.182-8.182c.276 0 .549.014.818.04V.818zm0 2.505c-.268-.033-.54-.05-.818-.05-3.615 0-6.546 2.93-6.546 6.545 0 3.615 2.931 6.546 6.546 6.546s6.545-2.931 6.545-6.546c0-.277-.017-.55-.05-.818H9.818C9.367 9 9 8.633 9 8.182V3.323zm1.636-1.636v5.677h5.677c-.37-2.961-2.716-5.308-5.677-5.677z"/>
</svg>
