<svg xmlns="http://www.w3.org/2000/svg" width="27" height="27" viewBox="0 0 27 27">
    <g fill="none" fill-rule="evenodd">
        <g>
            <g transform="translate(-497 -1052) translate(497 1052)">
                <g fill="#010101">
                    <path d="M5.162 1.139c-2.217 0-4.015 1.783-4.015 3.987 0 1.611.723 3.177 1.62 4.481.87 1.276 1.867 2.256 2.395 2.734.527-.478 1.525-1.458 2.395-2.734.896-1.304 1.62-2.87 1.62-4.481 0-2.204-1.798-3.987-4.015-3.987zM0 5.126C0 2.296 2.31 0 5.162 0c2.85 0 5.162 2.295 5.162 5.126 0 1.936-.861 3.724-1.817 5.125-.962 1.401-2.057 2.466-2.611 2.967-.42.376-1.05.376-1.468 0-.554-.501-1.65-1.566-2.611-2.967C.86 8.85 0 7.061 0 5.126zm5.162-1.14c-.633 0-1.147.513-1.147 1.14 0 .626.514 1.139 1.147 1.139s1.147-.513 1.147-1.14c0-.626-.514-1.138-1.147-1.138zm-2.294 1.14c0-1.26 1.027-2.278 2.294-2.278 1.267 0 2.294 1.019 2.294 2.278 0 1.258-1.027 2.278-2.294 2.278-1.267 0-2.294-1.02-2.294-2.278z" transform="translate(8.735 7.147)"/>
                </g>
                <circle cx="13.5" cy="13.5" r="13.5" stroke="#010101"/>
            </g>
        </g>
    </g>
</svg>
