<svg xmlns="http://www.w3.org/2000/svg" width="27" height="27" viewBox="0 0 27 27">
    <g fill="none" fill-rule="evenodd">
        <path fill="#010101" d="M13.897 8.286c-2.217 0-4.015 1.783-4.015 3.987 0 1.611.724 3.177 1.62 4.482.87 1.275 1.867 2.255 2.395 2.733.528-.478 1.526-1.458 2.396-2.733.896-1.305 1.619-2.87 1.619-4.482 0-2.204-1.798-3.987-4.015-3.987zm-5.162 3.987c0-2.83 2.311-5.126 5.162-5.126s5.162 2.295 5.162 5.126c0 1.936-.861 3.724-1.817 5.125-.961 1.401-2.057 2.466-2.61 2.967-.42.376-1.05.376-1.47 0-.553-.501-1.649-1.566-2.61-2.967-.956-1.4-1.817-3.19-1.817-5.125zm5.162-1.14c-.633 0-1.147.513-1.147 1.14 0 .626.514 1.139 1.147 1.139s1.147-.513 1.147-1.14c0-.626-.514-1.138-1.147-1.138zm-2.294 1.14c0-1.259 1.027-2.278 2.294-2.278 1.267 0 2.294 1.019 2.294 2.278 0 1.258-1.027 2.278-2.294 2.278-1.267 0-2.294-1.02-2.294-2.278z"/>
        <circle cx="13.5" cy="13.5" r="13.5" stroke="#010101"/>
    </g>
</svg>
