<svg xmlns="http://www.w3.org/2000/svg" width="27" height="27" viewBox="0 0 27 27">
    <g fill="none" fill-rule="evenodd">
        <g stroke="#010101">
            <circle cx="13.5" cy="13.5" r="13.5"/>
            <path fill="#010101" fill-rule="nonzero" stroke-width=".5" d="M19.044 11.363l.195-2.465c.039-.327-.107-.64-.38-.817-.163-.107-.361-.154-.56-.136l-5.747.46c-.19.023-.368.11-.504.246l-6.241 6.241c-.332.332-.33.873.003 1.206l5.281 5.282c.16.16.375.25.604.25.23 0 .444-.088.604-.249l6.242-6.241c.13-.13.217-.308.246-.514l.212-2.69c.72.647 1.176 1.582 1.176 2.624 0 1.95-1.586 3.536-3.536 3.536-.13 0-.236.106-.236.236s.106.236.236.236c2.21 0 4.007-1.798 4.007-4.008 0-1.306-.63-2.465-1.602-3.197zm-.726 3.211c-.012.09-.053.174-.11.232l-6.242 6.242c-.072.071-.167.11-.27.11 0 0 0 0 0 0-.103 0-.2-.04-.272-.112l-5.28-5.281c-.074-.073-.114-.17-.114-.272 0-.101.039-.196.11-.268l6.242-6.241c.06-.061.141-.1.217-.11l5.741-.46.043-.002c.08 0 .154.022.218.064.124.08.187.217.169.375l-.175 2.215c-.316-.177-.658-.31-1.019-.398-.034-.268-.15-.517-.344-.711-.478-.478-1.253-.48-1.731 0-.477.476-.476 1.252.001 1.73.476.476 1.253.479 1.73.001.153-.152.255-.34.31-.542.364.096.704.247 1.012.446l-.236 2.982zM16.98 11.25c.324 0 .642.026.956.064-.08.235-.207.453-.392.634-.635.617-1.67.616-2.306-.004-.637-.62-.639-1.627-.004-2.244.639-.623 1.672-.621 2.31 0 .178.173.304.382.383.607-.311-.033-.626-.052-.947-.052-.282 0-.511.222-.511.497 0 .276.229.498.511.498z"/>
        </g>
    </g>
</svg>
