<svg xmlns="http://www.w3.org/2000/svg" width="19" height="17" viewBox="0 0 19 17">
    <g fill="#010101">
        <path d="M4 17h8c2.21 0 4-1.79 4-4v-1.6c0-.442-.358-.8-.8-.8-.442 0-.8.358-.8.8V13c0 1.325-1.075 2.4-2.4 2.4H4c-1.325 0-2.4-1.075-2.4-2.4V5c0-1.325 1.075-2.4 2.4-2.4h6.4c.442 0 .8-.358.8-.8 0-.442-.358-.8-.8-.8H4C1.79 1 0 2.79 0 5v8c0 2.21 1.79 4 4 4z"/>
        <path d="M16.4.236c-.307-.315-.805-.315-1.113 0L9.525 6.163 7.713 4.3c-.308-.315-.806-.315-1.114 0L4.23 6.74c-.306.317-.306.829 0 1.146l4.74 4.878c.308.315.805.315 1.113 0L18.77 3.82c.307-.317.307-.829 0-1.146L16.4.236zM9.526 11.04l-3.62-3.727 1.251-1.289 1.813 1.862c.308.315.805.315 1.113 0l5.762-5.926 1.252 1.288-7.57 7.792z"/>
    </g>
</svg>
