<?xml version="1.0" encoding="UTF-8"?>
<svg width="18px" height="19px" viewBox="0 0 18 19" version="1.1" xmlns="http://www.w3.org/2000/svg" xmlns:xlink="http://www.w3.org/1999/xlink">
    <title>anticipated</title>
    <defs>
        <filter id="filter-1">
            <feColorMatrix in="SourceGraphic" type="matrix" values="0 0 0 0 0.337255 0 0 0 0 0.501961 0 0 0 0 0.988235 0 0 0 1.000000 0"></feColorMatrix>
        </filter>
        <path d="M0.001,9.4975 C0.001,14.4695 4.0305,18.499 9.0025,18.499 L9.0025,18.499 C11.3895,18.4985 13.6785,17.55 15.366,15.8615 L15.366,15.8615 C15.672,15.5045 15.6515,14.9725 15.3195,14.64 L15.3195,14.64 C14.987,14.3075 14.454,14.2865 14.097,14.5925 L14.097,14.5925 C11.792,16.8955 8.228,17.3635 5.407,15.734 L5.407,15.734 C2.5855,14.1045 1.209,10.7835 2.0515,7.6365 L2.0515,7.6365 C2.8935,4.489 5.744,2.299 9.0025,2.2965 L9.0025,2.2965 C9.4995,2.2965 9.9025,1.8935 9.9025,1.3965 L9.9025,1.3965 C9.9025,0.899 9.4995,0.4965 9.0025,0.4965 L9.0025,0.4965 C4.0305,0.4965 0.001,4.526 0.001,9.4975 L0.001,9.4975 Z" id="path-2"></path>
        <path d="M0.3025,1.0495 C0.2235,1.28 0.241,1.532 0.3515,1.7495 L0.3515,1.7495 C0.4615,1.9665 0.655,2.1295 0.8875,2.2015 L0.8875,2.2015 C0.9885,2.2375 1.0955,2.2525 1.2025,2.247 L1.2025,2.247 C1.567,2.2265 1.884,1.9885 2.0035,1.6435 L2.0035,1.6435 C2.1655,1.1735 1.9155,0.6625 1.4455,0.5005 L1.4455,0.5005 C1.348,0.4665 1.2485,0.4505 1.1505,0.4505 L1.1505,0.4505 C0.7805,0.4505 0.4335,0.6805 0.3025,1.0495 L0.3025,1.0495 Z M2.859,2.103 C2.5525,2.491 2.6165,3.0535 3.003,3.363 L3.003,3.363 C3.161,3.4895 3.358,3.56 3.561,3.56100608 L3.561,3.56100608 C3.8335,3.562 4.0915,3.4395 4.263,3.228 L4.263,3.228 C4.413,3.0405 4.4825,2.801 4.4555,2.563 L4.4555,2.563 C4.4285,2.3245 4.3075,2.1075 4.119,1.959 L4.119,1.959 C3.954,1.8285 3.7575,1.765 3.562,1.765 L3.562,1.765 C3.298,1.765 3.037,1.8805 2.859,2.103 L2.859,2.103 Z M4.938,3.921 C4.7345,4.047 4.5905,4.2495 4.5365,4.482 L4.5365,4.482 C4.4825,4.715 4.523,4.9605 4.65,5.163 L4.65,5.163 L4.596,5.163 C4.771,5.4435 5.0855,5.6065 5.4155,5.5865 L5.4155,5.5865 C5.584,5.5865 5.749,5.54 5.8925,5.4515 L5.8925,5.4515 C6.096,5.325 6.2405,5.123 6.2945,4.8895 L6.2945,4.8895 C6.3485,4.657 6.3075,4.412 6.1805,4.209 L6.1805,4.209 C6.054,4.006 5.8525,3.861 5.6195,3.807 L5.6195,3.807 C5.552,3.7915 5.484,3.784 5.416,3.784 L5.416,3.784 C5.248,3.784 5.0825,3.8305 4.938,3.921 L4.938,3.921 Z M6.1985,6.2975 C5.967,6.3565 5.768,6.5055 5.6465,6.7115 L5.6465,6.7115 C5.525,6.918 5.4905,7.164 5.5505,7.3955 L5.5505,7.3955 L5.523,7.3955 C5.6165,7.8075 5.983,8.0995 6.4055,8.0975 L6.4055,8.0975 C6.4715,8.1065 6.538,8.1065 6.6035,8.0975 L6.6035,8.0975 C6.8465,8.0445 7.0565,7.8945 7.1845,7.681 L7.1845,7.681 C7.3125,7.468 7.3465,7.2115 7.2785,6.9725 L7.2785,6.9725 C7.225,6.7395 7.081,6.5375 6.8785,6.411 L6.8785,6.411 C6.7345,6.321 6.569,6.274 6.4015,6.274 L6.4015,6.274 C6.334,6.274 6.2655,6.2815 6.1985,6.2975 L6.1985,6.2975 Z M5.7035,9.799 C5.644,10.2785 5.9735,10.7195 6.4505,10.798 L6.4505,10.798 L6.4955,10.798 L6.6035,10.798 C7.058,10.797 7.44,10.457 7.4945,10.006 L7.4945,10.006 C7.5225,9.767 7.4535,9.527 7.303,9.339 L7.303,9.339 C7.1525,9.151 6.933,9.0315 6.6935,9.007 L6.6935,9.007 C6.661,9.0035 6.6285,9.0015 6.5965,9.0015 L6.5965,9.0015 C6.1455,9.0015 5.756,9.3405 5.7035,9.799 L5.7035,9.799 Z M4.992,12.121 C4.7795,12.569 4.969,13.1035 5.4155,13.3185 L5.4155,13.3185 C5.5335,13.376 5.6625,13.4065 5.7935,13.408 L5.7935,13.408 C6.1395,13.4075 6.4545,13.208 6.6035,12.8955 L6.6035,12.8955 C6.8175,12.45 6.6325,11.916 6.1895,11.698 L6.1895,11.698 C6.065,11.639 5.9335,11.611 5.804,11.611 L5.804,11.611 C5.4685,11.611 5.147,11.799 4.992,12.121 L4.992,12.121 Z" id="path-4"></path>
        <path d="M2.102,1.097 L2.102,6.1285 L0.563,7.659 C0.3925,7.828 0.2965,8.058 0.2965,8.298 L0.2965,8.298 C0.2965,8.538 0.3925,8.7685 0.563,8.937 L0.563,8.937 C0.733,9.1055 0.963,9.1995 1.202,9.19801768 L1.202,9.19801768 C1.441,9.1995 1.671,9.1055 1.841,8.937 L1.841,8.937 L3.6415,7.1365 C3.81,6.967 3.9035,6.737 3.90250794,6.4975 L3.90250794,6.4975 L3.90250794,1.097 C3.90250794,0.5995 3.4995,0.197 3.0025,0.197 L3.0025,0.197 C2.505,0.197 2.102,0.5995 2.102,1.097 L2.102,1.097 Z" id="path-6"></path>
    </defs>
    <g id="03.01.2021" stroke="none" stroke-width="1" fill="none" fill-rule="evenodd">
        <g id="Accounting---Expanded" transform="translate(-390.000000, -623.000000)">
            <g id="funds-in" transform="translate(339.000000, 510.000000)">
                <g id="table" transform="translate(0.000000, 48.000000)">
                    <g id="anticipated" transform="translate(51.000000, 65.000000)" filter="url(#filter-1)">
                        <g>
                            <g id="Group-3" transform="translate(0.000000, 0.004500)">
                                <mask id="mask-3" fill="white">
                                    <use xlink:href="#path-2"></use>
                                </mask>
                                <g id="Clip-2"></g>
                                <polygon id="Fill-1" fill="#010202" mask="url(#mask-3)" points="-4.5 23 20.0835 23 20.0835 -4.0045 -4.5 -4.0045"></polygon>
                            </g>
                            <g id="Group-6" transform="translate(10.500000, 0.504500)">
                                <mask id="mask-5" fill="white">
                                    <use xlink:href="#path-4"></use>
                                </mask>
                                <g id="Clip-5"></g>
                                <polygon id="Fill-4" fill="#010202" mask="url(#mask-5)" points="-4.247 17.909 12.0015 17.909 12.0015 -4.0505 -4.247 -4.0505"></polygon>
                            </g>
                            <g id="Group-9" transform="translate(6.000000, 3.004500)">
                                <mask id="mask-7" fill="white">
                                    <use xlink:href="#path-6"></use>
                                </mask>
                                <g id="Clip-8"></g>
                                <polygon id="Fill-7" fill="#010202" mask="url(#mask-7)" points="-4.204 13.699 8.4035 13.699 8.4035 -4.304 -4.204 -4.304"></polygon>
                            </g>
                        </g>
                    </g>
                </g>
            </g>
        </g>
    </g>
</svg>