<svg xmlns="http://www.w3.org/2000/svg" width="18" height="16" viewBox="0 0 18 16">
    <defs>
        <filter id="1ebevyryza">
            <feColorMatrix in="SourceGraphic" values="0 0 0 0 0.000000 0 0 0 0 0.000000 0 0 0 0 0.000000 0 0 0 1.000000 0"/>
        </filter>
    </defs>
    <g fill="none" fill-rule="evenodd">
        <g>
            <g filter="url(#1ebevyryza)" transform="translate(-61 -1350) translate(61 1350)">
                <path fill="#000" fill-rule="nonzero" d="M12.572 10.779l1-1c.156-.156.428-.047.428.178V14.5c0 .828-.672 1.5-1.5 1.5h-11C.672 16 0 15.328 0 14.5V3.502c0-.828.672-1.5 1.5-1.5h8.547c.222 0 .334.269.178.428l-1 1c-.047.047-.11.072-.178.072H1.5V14.5h11v-3.546c0-.066.025-.128.072-.175zm4.894-6.305L9.26 12.679l-2.825.312c-.82.09-1.516-.6-1.426-1.425l.313-2.824L13.528.537c.716-.716 1.872-.716 2.585 0l1.35 1.35c.716.715.716 1.874.003 2.587zm-3.088.965l-1.815-1.815-5.807 5.808-.228 2.04 2.04-.228 5.81-5.805zm2.025-2.49l-1.35-1.35c-.128-.128-.337-.128-.462 0l-.966.965 1.816 1.816.966-.966c.125-.13.125-.337-.004-.465z"/>
            </g>
        </g>
    </g>
</svg>
