<svg xmlns="http://www.w3.org/2000/svg" width="27" height="27" viewBox="0 0 27 27">
    <g fill="none" fill-rule="evenodd">
        <circle cx="13.5" cy="13.5" r="13.5" stroke="#010101"/>
        <path fill="#010101" d="M10.37 8.237c-.3 0-.545.244-.545.545v9.807c0 .3.244.545.545.545h6.538c.3 0 .545-.244.545-.545v-6.538h-2.18c-.902 0-1.634-.732-1.634-1.635v-2.18h-3.27zm4.359.77l1.954 1.954h-1.41c-.3 0-.544-.244-.544-.545V9.007zm-5.994-.225c0-.903.732-1.635 1.635-1.635h3.814c.144 0 .283.057.385.16l3.814 3.814c.102.102.16.24.16.385v7.083c0 .903-.732 1.635-1.635 1.635H10.37c-.903 0-1.635-.732-1.635-1.635V8.782zm2.725 5.993c0-.3.244-.545.544-.545h1.635c.3 0 .545.244.545.545 0 .3-.244.545-.545.545h-1.635c-.3 0-.544-.244-.544-.545zm0 2.18c0-.301.244-.545.544-.545h3.27c.3 0 .544.244.544.544 0 .301-.244.545-.544.545h-3.27c-.3 0-.544-.244-.544-.545z"/>
    </g>
</svg>
