<?xml version="1.0" encoding="UTF-8"?>
<svg width="15px" height="18px" viewBox="0 0 15 18" version="1.1" xmlns="http://www.w3.org/2000/svg" xmlns:xlink="http://www.w3.org/1999/xlink">
    <title>Fill 1166</title>
    <g id="03.01.2021" stroke="none" stroke-width="1" fill="none" fill-rule="evenodd">
        <g id="New-funds-in-modal" transform="translate(-1003.000000, -655.000000)" fill="#DC3529">
            <g id="new-funds-in-modal" transform="translate(336.000000, 390.000000)">
                <g id="Group-2" transform="translate(667.000000, 265.000000)">
                    <path d="M6.75,1.5 C6.336,1.5 6,1.836 6,2.25 L6,3 L9,3 L9,2.25 C9,1.836 8.664,1.5 8.25,1.5 L6.75,1.5 Z M10.5,3 L10.5,2.25 C10.5,1.00725 9.49275,0 8.25,0 L6.75,0 C5.50725,0 4.5,1.00725 4.5,2.25 L4.5,3 L0.75,3 C0.336,3 0,3.336 0,3.75 C0,4.164 0.336,4.5 0.75,4.5 L0.82875,4.5 L2.106,15.99825 C2.23275,17.13825 3.19575,18 4.3425,18 L10.6575,18 C11.80425,18 12.76725,17.13825 12.89325,15.99825 L14.17125,4.5 L14.25,4.5 C14.664,4.5 15,4.164 15,3.75 C15,3.336 14.664,3 14.25,3 L10.5,3 Z M12.66225,4.5 L2.33775,4.5 L3.597,15.8325 C3.63975,16.21275 3.96075,16.5 4.3425,16.5 L10.6575,16.5 C11.03925,16.5 11.36025,16.21275 11.403,15.8325 L12.66225,4.5 Z M6,6.75 C6.414,6.75 6.75,7.086 6.75,7.5 L6.75,13.5 C6.75,13.914 6.414,14.25 6,14.25 C5.586,14.25 5.25,13.914 5.25,13.5 L5.25,7.5 C5.25,7.086 5.586,6.75 6,6.75 Z M9.75,7.5 L9.75,13.5 C9.75,13.914 9.414,14.25 9,14.25 C8.586,14.25 8.25,13.914 8.25,13.5 L8.25,7.5 C8.25,7.086 8.586,6.75 9,6.75 C9.414,6.75 9.75,7.086 9.75,7.5 Z" id="Fill-1166"></path>
                </g>
            </g>
        </g>
    </g>
</svg>