<svg xmlns="http://www.w3.org/2000/svg" width="40" height="40" viewBox="0 0 40 40">
    <g fill="none" fill-rule="evenodd">
        <g fill="#000" fill-rule="nonzero">
            <g>
                <path d="M20.025 40c-8.1-.002-15.4-4.875-18.5-12.347-3.1-7.472-1.387-16.073 4.34-21.793C9.61 2.096 14.71-.014 20.025 0c1.106 0 2.003.896 2.003 2 0 1.105-.897 2-2.003 2-7.25.006-13.592 4.871-15.466 11.864-1.874 6.993 1.188 14.371 7.466 17.991 6.277 3.62 14.207 2.58 19.336-2.535.795-.68 1.98-.634 2.719.105.74.739.786 1.921.105 2.715-3.746 3.764-8.846 5.874-14.16 5.86zM35.396 30.463c-.986-.486-1.403-1.697-.934-2.71.474-1.01 1.655-1.439 2.643-.958.978.494 1.386 1.703.914 2.71-.328.708-1.024 1.16-1.788 1.162-.29-.005-.575-.075-.835-.204zm2.285-5.706c-1.052-.177-1.78-1.176-1.65-2.261.126-1.112 1.102-1.913 2.187-1.794.528.057 1.013.328 1.345.753.332.424.485.968.424 1.51-.12 1.02-.965 1.79-1.968 1.792H37.681zm-1.987-7.702c-.133-.524-.056-1.081.212-1.548.269-.466.707-.804 1.219-.938.514-.122 1.054-.03 1.501.257.448.287.765.744.884 1.271.15.541.074 1.122-.208 1.604-.282.483-.747.824-1.283.943-.145.02-.292.02-.437 0-.932.005-1.742-.656-1.948-1.589h.06zm-1.987-5.053c-.28-.46-.371-1.014-.252-1.542.12-.527.439-.985.888-1.27.447-.288.988-.38 1.503-.258.515.122.96.45 1.24.91.28.459.37 1.013.25 1.541-.119.528-.438.985-.887 1.27-.316.202-.681.307-1.053.306-.729.046-1.423-.322-1.809-.957h.12zM30.07 7.926c-.853-.7-.995-1.974-.318-2.853.682-.874 1.925-1.02 2.782-.326.415.337.683.83.742 1.37.06.539-.093 1.08-.424 1.504-.379.478-.949.756-1.55.754-.448-.003-.883-.161-1.232-.449zM25.4 5.298c-.514-.163-.941-.533-1.185-1.024-.243-.492-.282-1.063-.107-1.585.365-1.054 1.492-1.61 2.524-1.243 1.036.367 1.588 1.525 1.232 2.588-.265.781-.964 1.32-1.769 1.365-.236.015-.473-.02-.695-.101z" transform="translate(-268 -1422) translate(268 1422)"/>
            </g>
        </g>
    </g>
</svg>
