<svg xmlns="http://www.w3.org/2000/svg" width="26" height="24" viewBox="0 0 26 24">
    <defs>
        <filter id="iskhao4hda">
            <feColorMatrix in="SourceGraphic" values="0 0 0 0 0.003922 0 0 0 0 0.003922 0 0 0 0 0.003922 0 0 0 1.000000 0"/>
        </filter>
    </defs>
    <g fill="none" fill-rule="evenodd">
        <g>
            <g fill="#FFF" fill-rule="nonzero" filter="url(#iskhao4hda)" transform="translate(-695 -1128) translate(695 1128)">
                <path d="M13 16.25c-.598 0-1.083-.485-1.083-1.083V7.583c0-.598.485-1.083 1.083-1.083s1.083.485 1.083 1.083v7.584c0 .598-.485 1.083-1.083 1.083z"/>
                <circle cx="13" cy="18.417" r="1.083"/>
                <path d="M23.01 23.833H2.99c-.385-.002-.74-.208-.932-.541l-1.885-3.25c-.193-.336-.193-.748 0-1.084L10.183.542c.195-.337.554-.544.943-.542h3.748c.397-.001.763.215.954.563l10.01 18.417c.193.335.193.748 0 1.083l-1.886 3.25c-.2.329-.558.526-.942.52zM3.618 21.667h18.764l1.256-2.167-9.403-17.333h-2.47L2.362 19.5l1.256 2.167z"/>
            </g>
        </g>
    </g>
</svg>
