<svg xmlns="http://www.w3.org/2000/svg" width="16" height="18" viewBox="0 0 16 18">
    <defs>
        <filter id="p2nkajkjda">
            <feColorMatrix in="SourceGraphic" values="0 0 0 0 0.003922 0 0 0 0 0.003922 0 0 0 0 0.003922 0 0 0 1.000000 0"/>
        </filter>
    </defs>
    <g fill="none" fill-rule="evenodd" filter="url(#p2nkajkjda)">
        <path fill="#03C3FF" fill-rule="nonzero" d="M7.975 0c2.934 0 5.384 2.238 5.65 5.16l.407 4.476c.036.393.272.74.625.916l.003.001c.79.395 1.29 1.203 1.29 2.086v.348c0 1.133-.919 2.051-2.051 2.051l-3.418-.001v.457c0 1.329-1.034 2.416-2.342 2.5L7.975 18c-1.385 0-2.507-1.122-2.507-2.506v-.457l-3.417.001C.918 15.038 0 14.12 0 12.988v-.349c0-.883.5-1.69 1.29-2.086l.002-.001c.353-.177.59-.523.626-.916l.406-4.476C2.59 2.238 5.04 0 7.974 0zm1.138 15.037H6.835v.457c0 .587.445 1.07 1.016 1.132l.124.007c.629 0 1.139-.51 1.139-1.14l-.001-.456zM7.975 1.367c-2.228 0-4.087 1.698-4.29 3.917L3.28 9.76c-.079.864-.599 1.626-1.375 2.014-.33.165-.537.5-.537.865v.348c0 .378.306.684.684.684h11.848c.377 0 .683-.306.683-.684v-.348c0-.365-.206-.7-.533-.863-.78-.39-1.3-1.152-1.379-2.016l-.407-4.476c-.201-2.219-2.061-3.917-4.288-3.917z"/>
    </g>
</svg>
