<svg xmlns="http://www.w3.org/2000/svg" width="19" height="19" viewBox="0 0 19 19">
    <path fill="#010101" d="M9.262 0c5.116 0 9.263 4.147 9.263 9.262 0 5.116-4.147 9.263-9.262 9.263C4.146 18.525 0 14.378 0 9.263 0 4.146 4.147 0 9.262 0zm0 1.425c-4.328 0-7.837 3.509-7.837 7.837 0 4.329 3.509 7.838 7.837 7.838 4.329 0 7.838-3.509 7.838-7.838 0-4.328-3.509-7.837-7.838-7.837zM9.025 5.7c.36 0 .659.268.706.616l.007.096V8.55h2.137c.36 0 .659.268.706.616l.007.096c0 .361-.269.66-.616.706l-.097.007H9.736l.002 2.138c0 .36-.269.658-.616.705l-.097.007c-.36 0-.659-.268-.706-.616l-.007-.096V9.975H6.175c-.36 0-.659-.268-.706-.616l-.006-.097c0-.36.268-.658.615-.705l.097-.007h2.138V6.412c0-.36.268-.658.615-.705l.097-.007z"/>
</svg>
