<svg xmlns="http://www.w3.org/2000/svg" width="15" height="15" viewBox="0 0 15 15">
    <g fill="#010101">
        <path d="M5.834 0h-5.5C.148 0 0 .15 0 .333v5.5c0 .185.15.334.333.334h5.501c.184 0 .333-.15.333-.333v-5.5C6.167.148 6.018 0 5.834 0zM13.834 0h-5.5C8.148 0 8 .15 8 .333v5.5c0 .185.15.334.333.334h5.501c.184 0 .334-.15.334-.333v-5.5c0-.185-.15-.334-.334-.334zM5.834 8h-5.5C.148 8 0 8.15 0 8.333v5.5c0 .185.15.334.333.334h5.501c.184 0 .334-.15.334-.333v-5.5c0-.185-.15-.334-.334-.334zM13.834 8h-5.5C8.148 8 8 8.15 8 8.333v5.5c0 .185.15.334.333.334h5.501c.184 0 .334-.15.334-.333v-5.5c0-.185-.15-.334-.334-.334z"/>
    </g>
</svg>
