<svg xmlns="http://www.w3.org/2000/svg" width="18" height="17" viewBox="0 0 18 17">
    <g fill="none" fill-rule="evenodd">
        <g fill="#000" fill-rule="nonzero">
            <g>
                <path d="M8.467 12.533c.072.068.156.121.248.157.182.08.388.08.57 0 .092-.036.176-.09.248-.157l2.25-2.25c.294-.295.294-.771 0-1.066-.295-.294-.771-.294-1.066 0l-.967.976V.75C9.75.336 9.414 0 9 0s-.75.336-.75.75v9.443l-.968-.976c-.294-.294-.77-.294-1.064 0-.295.295-.295.771 0 1.066l2.25 2.25z" transform="translate(-63 -762) translate(63 762)"/>
                <path d="M17.25 9c-.414 0-.75.336-.75.75v4.5c0 .414-.336.75-.75.75H2.25c-.414 0-.75-.336-.75-.75v-4.5c0-.414-.336-.75-.75-.75S0 9.336 0 9.75v4.5c0 1.243 1.007 2.25 2.25 2.25h13.5c1.243 0 2.25-1.007 2.25-2.25v-4.5c0-.414-.336-.75-.75-.75z" transform="translate(-63 -762) translate(63 762)"/>
            </g>
        </g>
    </g>
</svg>
