<svg xmlns="http://www.w3.org/2000/svg" width="18" height="12" viewBox="0 0 18 12">
    <g fill="none" fill-rule="evenodd">
        <g fill="#000">
            <g>
                <path d="M.233 1.252C.6.512 1.364 0 2.25 0h13.5c.886 0 1.65.511 2.017 1.252.149.301.233.641.233.998v7.5c0 1.243-1.007 2.25-2.25 2.25H2.25C1.007 12 0 10.993 0 9.75v-7.5c0-.357.084-.697.233-.998zm2.083.248l6.325 3.45c.224.122.494.122.718 0l6.325-3.45H2.316zM16.5 2.764l-6.422 3.502c-.672.367-1.484.367-2.156 0L1.5 2.764V9.75c0 .414.336.75.75.75h13.5c.414 0 .75-.336.75-.75V2.764z" transform="translate(-243 -508) translate(243 508)"/>
            </g>
        </g>
    </g>
</svg>
