<svg xmlns="http://www.w3.org/2000/svg" width="19" height="20" viewBox="0 0 19 20">
    <g fill="none" fill-rule="evenodd">
        <g fill="#000" fill-rule="nonzero">
            <g>
                <path d="M17.229 5.629c.426 0 .771.307.771.685v8.96c0 1.476-1.25 2.697-2.829 2.697H2.83c-1.58 0-2.829-1.22-2.829-2.697v-8.96c0-.378.345-.685.771-.685.426 0 .772.307.772.685v8.96c0 .746.593 1.326 1.286 1.326H15.17c.693 0 1.286-.58 1.286-1.326v-8.96c0-.378.346-.685.772-.685zM9.408 1.15l.086.075 4.114 4.114c.302.301.302.79 0 1.091-.274.274-.702.299-1.004.075l-.087-.075L9.72 3.635v7.702c0 .233-.285.425-.657.458l-.114.005c-.388 0-.708-.171-.763-.394l-.009-.069V3.634L5.38 6.431c-.274.274-.703.299-1.005.075L4.29 6.43c-.274-.274-.299-.702-.075-1.004l.075-.087 4.114-4.114c.274-.274.703-.299 1.005-.075z" transform="translate(-242 -464) translate(242.486 464.514) rotate(90 9 9.486)"/>
            </g>
        </g>
    </g>
</svg>
