<svg xmlns="http://www.w3.org/2000/svg" width="14" height="14" viewBox="0 0 14 14">
  <defs>
    <filter>
      <feColorMatrix
         in="SourceGraphic"
         values="0 0 0 0 0.003922 0 0 0 0 0.003922 0 0 0 0 0.003922 0 0 0 1.000000 0"/>
    </filter>
  </defs>
  <g
     fill="none"
     fill-rule="evenodd"
     filter="url(#ks3azopcfa)"
     id="g78">
    <path
       fill="#282828"
       d="M5.943.658c.432-.877 1.682-.877 2.114 0l1.53 3.101 3.407.508c.96.144 1.346 1.323.654 2.005l-2.465 2.435.573 3.426c.162.962-.849 1.692-1.711 1.237L7 11.768 3.955 13.37c-.862.455-1.873-.275-1.711-1.237l.573-3.426L.352 6.272c-.692-.682-.307-1.861.654-2.005l3.407-.508L5.943.658zM7 1.178L5.198 4.835l-4.018.6 2.901 2.865-.675 4.028L7 10.436l3.594 1.891L9.919 8.3l2.901-2.866-4.018-.6L7 1.18z"
       id="path76" />
     <path
     style="fill:#282828;stroke-width:0.0277084"
     d="M 6.9810869,1.0509899 C 6.764354,1.120817 6.7362164,1.3879211 6.6195004,1.5548235 6.0921567,2.5867743 5.5969361,3.6348553 5.0642846,4.6641176 3.7774235,4.8641227 2.4882677,5.049106 1.2013485,5.2486453 1.0055275,5.288038 0.9917881,5.5436039 1.1384778,5.6495447 2.0500162,6.5583675 2.9700183,7.4582652 3.882079,8.3665943 3.6694418,9.6686595 3.4369171,10.968559 3.2341794,12.270606 c -0.00405,0.201963 0.2501246,0.261646 0.3864438,0.145572 1.1329162,-0.575767 2.2416048,-1.199762 3.3843838,-1.752549 0.4906714,0.222846 0.9761885,0.505657 1.4638247,0.752538 0.6687465,0.349899 1.3350064,0.704745 2.0070813,1.048181 0.185749,0.07509 0.335469,-0.133583 0.269453,-0.301761 C 10.547877,10.892824 10.327312,9.6267927 10.116949,8.359126 11.016537,7.4577445 11.945265,6.5845203 12.823115,5.6619979 12.982509,5.5361676 12.930657,5.245985 12.71174,5.2339793 11.449766,5.0353513 10.184255,4.8555295 8.921863,4.6640096 8.3411588,3.493198 7.7733245,2.3158843 7.1837584,1.1495386 7.1271385,1.0797186 7.0712574,1.0519221 6.9810869,1.0509899 Z"
     id="path132" />
  </g>
</svg>
