<svg xmlns="http://www.w3.org/2000/svg" width="14" height="14" viewBox="0 0 14 14">
    <defs>
        <filter id="ks3azopcfa">
            <feColorMatrix in="SourceGraphic" values="0 0 0 0 0.003922 0 0 0 0 0.003922 0 0 0 0 0.003922 0 0 0 1.000000 0"/>
        </filter>
    </defs>
    <g fill="none" fill-rule="evenodd" filter="url(#ks3azopcfa)">
        <path fill="#282828" d="M5.943.658c.432-.877 1.682-.877 2.114 0l1.53 3.101 3.407.508c.96.144 1.346 1.323.654 2.005l-2.465 2.435.573 3.426c.162.962-.849 1.692-1.711 1.237L7 11.768 3.955 13.37c-.862.455-1.873-.275-1.711-1.237l.573-3.426L.352 6.272c-.692-.682-.307-1.861.654-2.005l3.407-.508L5.943.658zM7 1.178L5.198 4.835l-4.018.6 2.901 2.865-.675 4.028L7 10.436l3.594 1.891L9.919 8.3l2.901-2.866-4.018-.6L7 1.18z"/>
    </g>
</svg>
