<svg xmlns="http://www.w3.org/2000/svg" width="17" height="14" viewBox="0 0 17 14">
    <g fill="none" fill-rule="evenodd">
        <g fill="#000" fill-rule="nonzero">
            <g>
                <path d="M12.36 4.636c-1.281 0-2.32-1.038-2.32-2.318S11.08 0 12.36 0c1.28 0 2.317 1.038 2.317 2.318 0 .615-.244 1.205-.679 1.64-.434.434-1.024.678-1.639.678zm0-3.09c-.428 0-.774.345-.774.772 0 .427.346.773.773.773.427 0 .773-.346.773-.773 0-.427-.346-.773-.773-.773z" transform="translate(-241 -343) translate(241 343)"/>
                <path d="M10.818 3.09H.773C.346 3.09 0 2.746 0 2.319c0-.427.346-.773.773-.773h10.045c.427 0 .773.346.773.773 0 .427-.346.773-.773.773zM16.218 3.09H13.9c-.427 0-.773-.345-.773-.772 0-.427.346-.773.773-.773h2.318c.427 0 .773.346.773.773 0 .427-.346.773-.773.773zM8.495 9.273c-1.28 0-2.318-1.038-2.318-2.318s1.038-2.319 2.318-2.319 2.319 1.038 2.319 2.319c0 .614-.245 1.204-.68 1.639-.434.434-1.024.679-1.639.679zm0-3.091c-.426 0-.772.346-.772.773 0 .426.346.772.772.772.427 0 .773-.346.773-.772 0-.427-.346-.773-.773-.773z" transform="translate(-241 -343) translate(241 343)"/>
                <path d="M6.955 7.727H.773C.346 7.727 0 7.381 0 6.955c0-.427.346-.773.773-.773h6.182c.426 0 .772.346.772.773 0 .426-.346.772-.772.772zM16.218 7.727h-6.182c-.426 0-.772-.346-.772-.772 0-.427.346-.773.772-.773h6.182c.427 0 .773.346.773.773 0 .426-.346.772-.773.772zM4.632 13.91c-1.28 0-2.318-1.039-2.318-2.32 0-1.28 1.038-2.317 2.318-2.317S6.95 10.31 6.95 11.59s-1.038 2.318-2.318 2.318zm0-3.092c-.427 0-.773.346-.773.773 0 .427.346.773.773.773.427 0 .773-.346.773-.773 0-.427-.346-.773-.773-.773z" transform="translate(-241 -343) translate(241 343)"/>
                <path d="M16.218 12.364H6.173c-.427 0-.773-.346-.773-.773 0-.427.346-.773.773-.773h10.045c.427 0 .773.346.773.773 0 .427-.346.773-.773.773zM3.09 12.364H.774c-.427 0-.773-.346-.773-.773 0-.427.346-.773.773-.773H3.09c.427 0 .773.346.773.773 0 .427-.346.773-.773.773z" transform="translate(-241 -343) translate(241 343)"/>
            </g>
        </g>
    </g>
</svg>
