<svg xmlns="http://www.w3.org/2000/svg" width="3" height="15" viewBox="0 0 3 15">
    <g fill="none" fill-rule="evenodd">
        <g fill="#000" fill-rule="nonzero">
            <g>
                <path d="M1.5 6C2.328 6 3 6.672 3 7.5S2.328 9 1.5 9 0 8.328 0 7.5.672 6 1.5 6zm6 0C8.328 6 9 6.672 9 7.5S8.328 9 7.5 9 6 8.328 6 7.5 6.672 6 7.5 6zm-12 0c.828 0 1.5.672 1.5 1.5S-3.672 9-4.5 9-6 8.328-6 7.5-5.328 6-4.5 6z" transform="translate(-248 -728) translate(248 728) rotate(90 1.5 7.5)"/>
            </g>
        </g>
    </g>
</svg>
