<svg xmlns="http://www.w3.org/2000/svg" width="24" height="24" viewBox="0 0 24 24">
    <g fill="none" fill-rule="evenodd">
        <g fill="#000" fill-rule="nonzero">
            <g transform="translate(-239 -380) translate(239 380)">
                <path d="M21 22h-3c-.552 0-1-.448-1-1s.448-1 1-1h3c.552 0 1-.448 1-1v-5c0-.552-.448-1-1-1H3c-.552 0-1 .448-1 1v5c0 .552.448 1 1 1h3c.552 0 1 .448 1 1s-.448 1-1 1H3c-1.657 0-3-1.343-3-3v-5c0-1.657 1.343-3 3-3h18c1.657 0 3 1.343 3 3v5c0 1.657-1.343 3-3 3z"/>
                <path d="M18 13H6c-.552 0-1-.448-1-1V1c0-.552.448-1 1-1h7c.552 0 1 .448 1 1s-.448 1-1 1H7v9h10V6c0-.552.448-1 1-1s1 .448 1 1v6c0 .552-.448 1-1 1z"/>
                <path d="M18 7h-5c-.552 0-1-.448-1-1V1c.002-.404.247-.767.62-.92.372-.157.802-.074 1.09.21l5 5c.284.288.367.718.21 1.09-.153.373-.516.618-.92.62zm-4-2h1.59L14 3.41V5zM17 24H7c-1.105 0-2-.895-2-2v-2c0-1.105.895-2 2-2h10c1.105 0 2 .895 2 2v2c0 1.105-.895 2-2 2zM7 20v2h10v-2H7z"/>
                <circle cx="4" cy="15" r="1"/>
            </g>
        </g>
    </g>
</svg>
