<svg xmlns="http://www.w3.org/2000/svg" width="18" height="15" viewBox="0 0 18 15">
    <g fill="none" fill-rule="evenodd">
        <g fill="#000">
            <g>
                <path d="M9 1.5c-1.727 0-3.281.765-4.355 1.995-.273.308-.747.345-1.059.068-.31-.27-.342-.743-.07-1.058C4.859.975 6.816 0 9 0c4.025 0 7.27 3.293 7.349 7.35l.365-.375c.29-.292.764-.3 1.06-.007.297.285.302.757.012 1.057l-1.65 1.688c-.14.142-.334.225-.536.225s-.395-.083-.536-.225l-1.65-1.688c-.29-.3-.284-.772.012-1.057.296-.293.77-.285 1.06.007l.362.368C14.768 4.088 12.165 1.5 9 1.5zM2.4 5.063c.202 0 .395.082.536.225l1.65 1.687c.29.3.284.773-.012 1.058-.296.292-.77.285-1.06-.008l-.362-.367C3.232 10.913 5.835 13.5 9 13.5c1.727 0 3.281-.765 4.355-1.995.273-.307.747-.345 1.059-.067.31.27.342.742.07 1.057C13.141 14.025 11.184 15 9 15c-4.025 0-7.27-3.292-7.349-7.35l-.365.375c-.29.293-.764.3-1.06.008-.297-.285-.302-.758-.012-1.058l1.65-1.687c.14-.143.334-.225.536-.225z" transform="translate(-243 -598) translate(243 598)"/>
            </g>
        </g>
    </g>
</svg>
