<svg xmlns="http://www.w3.org/2000/svg" width="19" height="16" viewBox="0 0 19 16">
    <g fill="none" fill-rule="evenodd">
        <g fill="#000" fill-rule="nonzero">
            <g>
                <path d="M.258 3.36l1.81 1.81c.17.171.4.268.642.268.241 0 .472-.097.642-.268.171-.17.268-.401.268-.642 0-.242-.097-.473-.268-.643l-.271-.262h6.867c2.506-.002 4.835 1.293 6.156 3.423 1.321 2.13 1.446 4.791.331 7.036-.222.447-.04.99.407 1.212.124.06.26.091.398.09.344.003.66-.19.815-.497 1.393-2.805 1.237-6.132-.414-8.794-1.65-2.662-4.56-4.281-7.693-4.28H3.08l.271-.262c.23-.23.32-.564.235-.878C3.503.36 3.258.115 2.945.031c-.314-.084-.648.006-.878.235l-1.81 1.81c-.082.086-.146.187-.19.298-.09.22-.09.468 0 .688.044.11.108.212.19.298z" transform="translate(-239 -766) translate(239 766)"/>
                <path d="M6.329 10.86c0 2 1.62 3.62 3.619 3.62s3.619-1.62 3.619-3.62c0-1.998-1.62-3.618-3.62-3.618-1.998 0-3.618 1.62-3.618 3.619zm5.428 0c0 1-.81 1.81-1.81 1.81-.999 0-1.809-.81-1.809-1.81 0-.999.81-1.809 1.81-1.809s1.81.81 1.81 1.81z" transform="translate(-239 -766) translate(239 766)"/>
            </g>
        </g>
    </g>
</svg>
