<svg xmlns="http://www.w3.org/2000/svg" width="18" height="11" viewBox="0 0 18 11">
    <g fill="none" fill-rule="evenodd">
        <g fill="#000">
            <g>
                <path d="M9 1.571c-3.992 0-6.396 2.428-7.364 3.67-.124.158-.124.36 0 .518C2.604 7 5.008 9.428 9 9.428S15.396 7 16.364 5.759c.124-.158.124-.36 0-.518C15.396 4 12.992 1.572 9 1.572zM.427 4.265C1.53 2.849 4.332 0 9 0c4.668 0 7.47 2.849 8.573 4.265.57.73.57 1.74 0 2.47C16.47 8.151 13.668 11 9 11 4.332 11 1.531 8.151.427 6.735c-.57-.73-.57-1.74 0-2.47zM9 3.929c-.852 0-1.544.704-1.544 1.571S8.148 7.071 9 7.071c.852 0 1.544-.704 1.544-1.571S9.852 3.929 9 3.929zM5.913 5.5c0-1.736 1.382-3.143 3.087-3.143 1.705 0 3.087 1.407 3.087 3.143 0 1.736-1.382 3.143-3.087 3.143-1.705 0-3.087-1.407-3.087-3.143z" transform="translate(-64 -689) translate(64 689)"/>
            </g>
        </g>
    </g>
</svg>
