<svg xmlns="http://www.w3.org/2000/svg" width="15" height="21" viewBox="0 0 15 21">
    <defs>
        <filter id="lnffyhgcta">
            <feColorMatrix in="SourceGraphic" values="0 0 0 0 0.000000 0 0 0 0 0.000000 0 0 0 0 0.000000 0 0 0 1.000000 0"/>
        </filter>
    </defs>
    <g fill="none" fill-rule="evenodd">
        <g>
            <g filter="url(#lnffyhgcta)" transform="translate(-66 -850) translate(66 850)">
                <g fill="#000" stroke="#000" stroke-width=".25">
                    <path d="M9.324 18.52c.175-.001.336.091.424.242.087.15.087.336 0 .487-.088.15-.25.243-.424.243H.487c-.27 0-.487-.218-.487-.487 0-.268.218-.485.487-.486h8.837zM11.076.482l.785 4.535 2.842 1.2c.175.075.297.259.297.449l-.038 12.215c.002.458-.384.677-.808.44l-10.598-6.07c-.165-.093-.265-.29-.244-.478l.374-3.054-3.46-2.871c-.354-.32-.26-.728.062-.912L10.352.14c.34-.163.662.025.724.342h0zm-.846.85L1.31 6.477l2.94 2.446 6.637-3.814-.656-3.775zm1.235 4.574L4.653 9.81l-.335 2.757 8.869 5.075-2.842-4.877c-.66.142-1.376-.14-1.73-.752-.44-.758-.171-1.742.587-2.18.237-.136.497-.207.754-.213.565-.013 1.125.278 1.425.797.354.61.25 1.361-.198 1.861l2.811 4.824.023-10.118-2.552-1.08zm-1.478 4.687h-.008c-.097.004-.2.033-.29.084-.312.18-.408.54-.228.85.169.294.55.398.846.228.31-.181.408-.541.228-.85-.114-.2-.33-.315-.548-.312h0z" transform="translate(0 .14)"/>
                </g>
            </g>
        </g>
    </g>
</svg>
