<svg xmlns="http://www.w3.org/2000/svg" width="18" height="18" viewBox="0 0 18 18">
    <g fill="none" fill-rule="evenodd">
        <g>
            <g>
                <g>
                    <g fill="#000" fill-rule="nonzero">
                        <path d="M10.946 0C14.842 0 18 3.158 18 7.054c0 3.896-3.158 7.054-7.054 7.054-1.685 0-3.232-.59-4.445-1.577l-5.255 5.255c-.285.285-.747.285-1.032 0-.285-.285-.285-.747 0-1.032L5.469 11.5c-.986-1.213-1.577-2.76-1.577-4.445C3.892 3.158 7.05 0 10.946 0zm0 1.46c-3.09 0-5.595 2.504-5.595 5.594 0 3.09 2.505 5.595 5.595 5.595s5.595-2.505 5.595-5.595-2.505-5.595-5.595-5.595z" transform="translate(-242 -805) translate(242 805) matrix(-1 0 0 1 18 0)"/>
                    </g>
                </g>
                <path fill="#000" fill-rule="nonzero" d="M9.571 6.357H4.43c-.237 0-.429.192-.429.429v.428c0 .237.192.429.429.429H9.57c.237 0 .429-.192.429-.429v-.428c0-.237-.192-.429-.429-.429z" transform="translate(-242 -805) translate(242 805)"/>
            </g>
        </g>
    </g>
</svg>
