<svg xmlns="http://www.w3.org/2000/svg" width="20" height="20" viewBox="0 0 20 20">
    <defs>
        <filter id="8hef3cdh0a">
            <feColorMatrix in="SourceGraphic" values="0 0 0 0 0.011765 0 0 0 0 0.764706 0 0 0 0 1.000000 0 0 0 1.000000 0"/>
        </filter>
    </defs>
    <g fill="none" fill-rule="evenodd">
        <g fill="#010101" fill-rule="nonzero">
            <path d="M10 20c5.523 0 10-4.477 10-10S15.523 0 10 0 0 4.477 0 10s4.477 10 10 10zm0-1.538c-4.673 0-8.462-3.789-8.462-8.462S5.327 1.538 10 1.538 18.462 5.327 18.462 10 14.673 18.462 10 18.462z"/>
            <path d="M9.789 12.648l-3-3.375c-.322-.362-.052-.923.462-.923h5.998c.514 0 .784.561.462.923l-3 3.375c-.24.27-.682.27-.922 0z"/>
        </g>
    </g>
</svg>
