<svg xmlns="http://www.w3.org/2000/svg" width="15" height="15" viewBox="0 0 15 15">
    <g fill="none" fill-rule="evenodd">
        <g fill="#000" fill-rule="nonzero">
            <g>
                <path d="M14.945.423c-.069-.167-.201-.3-.368-.368C14.495.02 14.407 0 14.318 0h-4.09c-.377 0-.683.305-.683.682 0 .376.306.682.682.682h2.448L9.061 4.97c-.129.128-.201.303-.201.485 0 .181.072.356.201.484.128.129.303.201.484.201.182 0 .357-.072.485-.201l3.606-3.614v2.448c0 .376.306.682.682.682.377 0 .682-.306.682-.682V.682c-.001-.09-.02-.177-.055-.26z" transform="translate(-548 -512) translate(548 512)"/>
                <path d="M14.318 6.818c-.376 0-.682.305-.682.682v5.455c0 .376-.305.681-.681.681H2.045c-.376 0-.681-.305-.681-.681V2.045c0-.376.305-.681.681-.681H7.5c.377 0 .682-.306.682-.682C8.182.305 7.877 0 7.5 0H2.045C.915 0 0 .916 0 2.045v10.91C0 14.085.916 15 2.045 15h10.91c1.13 0 2.045-.916 2.045-2.045V7.5c0-.377-.305-.682-.682-.682z" transform="translate(-548 -512) translate(548 512)"/>
            </g>
        </g>
    </g>
</svg>
